SplineFontDB: 3.2
FontName: BMusicalTextFont
FullName: BMusicalTextFont
FamilyName: BMusicalTextFont
Weight: Bold

StartChar: .notdef
Encoding: 19 -1 0
Width: 500
Flags: MW
LayerCount: 2
Fore
SplineSet
50 0 m 1
 50 533 l 1
 450 533 l 1
 450 0 l 1
 50 0 l 1
100 50 m 1
 400 50 l 1
 400 483 l 1
 100 483 l 1
 100 50 l 1
EndSplineSet
EndChar

StartChar: zero
Encoding: 1 48 2
Width: 719
VWidth: 2056
Flags: HMW
LayerCount: 2
Fore
SplineSet
285.966796875 0 m 4
 49.966796875 0 19.966796875 224 84.966796875 426 c 4
 157.966796875 662 310.966796875 800 487.966796875 800 c 4
 725.966796875 800 754.966796875 576 689.966796875 374 c 4
 614.966796875 138 462.966796875 0 285.966796875 0 c 4
262.966796875 399 m 4
 216.966796875 257 182.966796875 55 282.966796875 55 c 4
 376.966796875 55 460.966796875 234 512.966796875 401 c 4
 558.966796875 543 591.966796875 745 489.966796875 745 c 4
 397.966796875 745 314.966796875 564 262.966796875 399 c 4
EndSplineSet
EndChar

StartChar: one
Encoding: 2 49 3
Width: 459
VWidth: 2056
Flags: HMW
LayerCount: 2
Fore
SplineSet
52 24 m 6
 31 24 21 36 21 53 c 4
 21 70 31 80 50 82 c 6
 123 89 l 6
 142 91 142 95 148 110 c 6
 290 554 l 6
 292 564 294 575 294 579 c 4
 294 589 290 592 284 592 c 4
 276 592 267 588 257 573 c 6
 179 489 l 6
 166 474 159 466 142 466 c 4
 123 466 109 483 109 498 c 4
 109 508 115 518 125 533 c 6
 346 784 l 6
 356 794 365 800 380 800 c 4
 405 800 418 782 445 782 c 4
 466 782 492 800 515 800 c 4
 528 800 534 792 534 779 c 4
 534 777 532 767 530 757 c 6
 328 118 l 6
 324 99 319 91 336 89 c 6
 407 82 l 6
 426 80 434 70 434 53 c 4
 434 36 426 24 403 24 c 6
 52 24 l 6
EndSplineSet
EndChar

StartChar: two
Encoding: 3 50 4
Width: 636
VWidth: 2056
Flags: HMW
LayerCount: 2
Fore
SplineSet
53 11 m 4
 32 11 20 23 20 42 c 4
 20 50 22 58 26 75 c 4
 61 209 135 313 310 384 c 4
 473 449 519 553 519 651 c 4
 519 724 466 741 410 741 c 4
 339 741 300 708 300 683 c 4
 300 666 309 658 322 645 c 4
 335 632 348 612 348 583 c 4
 348 527 305 476 249 476 c 4
 184 476 160 520 160 566 c 4
 160 685 268 800 437 800 c 4
 594 800 686 731 686 620 c 4
 686 436 540 360 375 322 c 4
 294 303 222 271 176 219 c 4
 159 200 153 184 168 184 c 4
 176 184 184 190 201 196 c 4
 226 206 254 211 285 211 c 4
 352 211 401 174 462 174 c 4
 500 174 527 186 552 219 c 4
 562 236 570 242 583 242 c 4
 598 242 615 234 615 217 c 4
 615 209 612 203 606 188 c 4
 568 71 520 4 414 4 c 4
 276 4 222 94 149 94 c 4
 118 94 105 75 95 48 c 4
 85 21 74 11 53 11 c 4
EndSplineSet
EndChar

StartChar: three
Encoding: 4 51 5
Width: 574
VWidth: 2056
Flags: HMW
LayerCount: 2
Fore
SplineSet
236 0 m 4
 88 0 21 78 21 161 c 4
 21 230 65 282 123 282 c 4
 167 282 202 257 202 207 c 4
 202 153 173 127 150 117 c 4
 133 109 123 105 123 92 c 4
 123 71 156 55 198 55 c 4
 325 55 390 182 390 274 c 4
 390 341 352 386 275 386 c 6
 255 386 l 6
 228 386 213 399 213 418 c 4
 213 437 228 449 255 449 c 6
 278 449 l 6
 399 449 470 528 470 639 c 4
 470 685 442 735 361 735 c 4
 317 735 292 721 292 706 c 4
 292 700 302 692 317 679 c 4
 327 666 336 649 336 626 c 4
 336 570 294 528 242 528 c 4
 194 528 161 564 163 618 c 4
 167 731 276 800 407 800 c 4
 534 800 639 733 639 624 c 4
 639 541 568 474 480 439 c 4
 463 431 455 426 455 420 c 4
 455 410 463 407 478 401 c 4
 532 374 559 324 559 272 c 4
 559 107 413 0 236 0 c 4
EndSplineSet
EndChar

StartChar: four
Encoding: 5 52 6
Width: 632
VWidth: 2056
Flags: HMW
LayerCount: 2
Fore
SplineSet
21 266 m 4
 21 281 29 289 42 302 c 4
 178 438 311 589 365 777 c 4
 369 790 375 800 392 800 c 4
 419 800 453 782 493 782 c 4
 531 782 560 800 591 800 c 4
 608 800 614 794 614 784 c 4
 614 778 613 772 603 759 c 4
 503 628 324 451 161 322 c 4
 153 316 150 312 150 308 c 4
 150 304 152 297 167 297 c 6
 355 297 l 6
 370 297 372 304 376 314 c 6
 413 433 l 6
 417 448 421 456 436 473 c 6
 570 617 l 6
 587 636 597 644 618 644 c 4
 635 644 647 640 647 625 c 4
 647 619 643 602 639 585 c 6
 553 314 l 6
 551 301 555 297 563 297 c 6
 624 297 l 6
 641 297 653 287 653 268 c 4
 653 251 641 239 622 239 c 6
 551 239 l 6
 536 239 532 232 530 222 c 6
 497 118 l 6
 493 99 488 91 505 89 c 6
 576 82 l 6
 595 80 603 70 603 53 c 4
 603 36 595 24 572 24 c 6
 221 24 l 6
 200 24 190 36 190 53 c 4
 190 70 200 80 219 82 c 6
 292 89 l 6
 311 91 311 95 317 110 c 6
 353 224 l 6
 355 234 350 239 342 239 c 6
 58 239 l 6
 33 239 21 249 21 266 c 4
EndSplineSet
EndChar

StartChar: five
Encoding: 6 53 7
Width: 629
VWidth: 2056
Flags: HMW
LayerCount: 2
Fore
SplineSet
250 11 m 4
 102 11 35 89 35 172 c 4
 35 241 79 293 135 293 c 4
 179 293 216 268 216 218 c 4
 216 164 187 138 164 128 c 4
 147 120 137 116 137 103 c 4
 137 82 170 66 212 66 c 4
 348 66 415 235 415 335 c 4
 415 396 390 441 319 441 c 4
 254 441 212 398 193 379 c 4
 178 364 169 358 154 358 c 4
 135 358 120 370 120 389 c 4
 120 402 123 408 129 429 c 6
 244 765 l 6
 252 790 266 800 289 800 c 4
 304 800 317 798 346 790 c 4
 371 782 413 773 471 773 c 4
 532 773 583 779 625 792 c 4
 654 800 678 806 678 806 c 6
 688 806 696 798 696 788 c 4
 696 773 688 761 669 742 c 4
 604 681 509 625 388 625 c 4
 361 625 329 629 306 631 c 4
 285 635 277 635 269 614 c 6
 237 521 l 6
 231 500 236 487 267 495 c 4
 294 503 323 510 365 510 c 4
 501 510 584 460 584 339 c 4
 584 143 442 11 250 11 c 4
EndSplineSet
EndChar

StartChar: six
Encoding: 7 54 8
Width: 626
VWidth: 2056
Flags: HMW
LayerCount: 2
Fore
SplineSet
260.927734375 0 m 4
 1.927734375 0 -23.072265625 226 51.927734375 453 c 4
 126.927734375 685 271.927734375 800 450.927734375 800 c 4
 573.927734375 800 648.927734375 737 648.927734375 651 c 4
 648.927734375 580 607.927734375 535 546.927734375 535 c 4
 500.927734375 535 458.927734375 564 458.927734375 614 c 4
 458.927734375 658 484.927734375 689 515.927734375 704 c 4
 525.927734375 708 544.927734375 716 544.927734375 724 c 4
 544.927734375 737 511.927734375 749 471.927734375 747 c 4
 348.927734375 741 269.927734375 605 225.927734375 482 c 4
 212.927734375 442 231.927734375 440 250.927734375 453 c 4
 292.927734375 484 342.927734375 497 398.927734375 497 c 4
 519.927734375 497 584.927734375 418 584.927734375 318 c 4
 584.927734375 105 412.927734375 0 260.927734375 0 c 4
177.927734375 230 m 4
 162.927734375 159 156.927734375 55 254.927734375 55 c 4
 335.927734375 55 415.927734375 174 415.927734375 320 c 4
 415.927734375 381 398.927734375 422 337.927734375 422 c 4
 264.927734375 422 198.927734375 339 177.927734375 230 c 4
EndSplineSet
EndChar

StartChar: seven
Encoding: 8 55 9
Width: 572
VWidth: 2056
Flags: HMW
LayerCount: 2
Fore
SplineSet
45 533 m 4
 45 537 47 544 49 550 c 6
 120 775 l 6
 128 796 138 800 157 800 c 4
 174 800 184 794 184 781 c 4
 184 764 176 753 176 740 c 4
 176 734 180 731 182 731 c 4
 186 731 194 739 209 754 c 4
 242 783 282 806 328 806 c 4
 430 806 470 721 539 721 c 4
 570 721 591 738 604 773 c 4
 612 794 621 800 646 800 c 4
 663 800 677 796 677 777 c 4
 677 767 675 756 673 746 c 4
 629 602 556 508 485 427 c 4
 370 296 339 176 308 45 c 4
 306 30 299 22 280 22 c 4
 249 22 222 40 191 40 c 4
 158 40 126 22 95 22 c 4
 82 22 76 28 76 38 c 4
 76 44 78 53 80 57 c 4
 122 191 201 316 328 416 c 4
 416 487 491 535 552 625 c 4
 562 640 552 651 535 641 c 4
 493 614 448 600 406 600 c 4
 329 600 259 639 201 639 c 4
 151 639 126 595 107 539 c 4
 101 516 89 512 70 512 c 4
 53 512 45 518 45 533 c 4
EndSplineSet
EndChar

StartChar: eight
Encoding: 9 56 10
Width: 603
VWidth: 2056
Flags: HMW
LayerCount: 2
Fore
SplineSet
-5 199 m 4
 -5 280 36 355 145 399 c 4
 187 416 181 424 162 449 c 4
 135 480 122 522 122 572 c 4
 122 716 241 800 414 800 c 4
 579 800 648 720 648 624 c 4
 648 561 613 493 521 445 c 4
 481 424 487 415 512 388 c 4
 550 346 567 303 567 240 c 4
 567 86 423 0 258 0 c 4
 76 0 -5 88 -5 199 c 4
222 355 m 4
 151 311 126 234 126 182 c 4
 126 119 160 50 262 50 c 4
 341 50 406 100 406 186 c 4
 406 236 379 262 270 345 c 4
 247 364 239 365 222 355 c 4
283 631 m 4
 283 583 308 551 387 493 c 4
 412 474 422 476 437 484 c 4
 493 524 519 583 519 639 c 4
 519 695 491 750 410 750 c 4
 335 750 283 706 283 631 c 4
EndSplineSet
EndChar

StartChar: nine
Encoding: 10 57 11
Width: 648
VWidth: 2056
Flags: HMW
LayerCount: 2
Fore
SplineSet
233 0 m 4
 110 0 35 62 35 148 c 4
 35 219 76 265 137 265 c 4
 183 265 225 236 225 186 c 4
 225 142 199 111 168 96 c 4
 158 92 139 83 139 75 c 4
 139 62 172 50 212 52 c 4
 335 58 415 195 459 318 c 4
 472 358 452 360 433 347 c 4
 391 316 341 303 285 303 c 4
 164 303 100 382 100 482 c 4
 100 695 271 800 423 800 c 4
 682 800 707 574 632 347 c 4
 557 115 412 0 233 0 c 4
429 745 m 4
 348 745 269 626 269 480 c 4
 269 419 285 378 346 378 c 4
 419 378 486 461 507 570 c 4
 522 641 527 745 429 745 c 4
EndSplineSet
EndChar

StartChar: colon
Encoding: 11 58 12
Width: 231
VWidth: 2056
Flags: HMW
LayerCount: 2
Fore
SplineSet
167 388 m 0
 119 388 90 426 90 470 c 0
 90 522 127 559 175 559 c 0
 221 559 253 522 253 480 c 0
 253 426 213 388 167 388 c 0
21 202 m 0
 21 254 58 292 106 292 c 0
 152 292 184 255 184 213 c 0
 184 159 144 121 98 121 c 0
 50 121 21 158 21 202 c 0
EndSplineSet
EndChar

StartChar: p
Encoding: 15 112 13
Width: 365
Flags: W
HStem: -134 26 1 33 238 39 243 37
VStem: -89 477 299 89
LayerCount: 2
Fore
SplineSet
-89 -130 m 0xe8
 -89 -121 -85 -117 -76 -117 c 2
 -45 -117 l 2
 -35 -117 -33 -115 -30 -107 c 2
 93 198 l 2
 96 205 99 215 99 223 c 0
 99 230 96 235 88 235 c 0
 70 235 50 209 21 159 c 0
 16 150 12 144 5 144 c 0
 -1 144 -6 148 -6 155 c 0
 -6 160 -4 165 1 174 c 0
 32 231 64 273 123 273 c 0
 149 273 164 264 171 252 c 0
 180 235 177 228 182 228 c 0
 186 228 189 236 203 248 c 0
 221 264 243 274 274 274 c 0xd4
 330 274 366 243 366 185 c 0
 366 90 288 -10 192 -10 c 0
 175 -10 162 -8 148 -1 c 0
 132 7 129 17 124 17 c 0
 119 17 117 10 115 5 c 2
 70 -107 l 2
 69 -110 68 -113 68 -114 c 0
 68 -117 71 -117 77 -117 c 2
 117 -117 l 2
 125 -117 129 -121 129 -129 c 0
 129 -138 125 -142 116 -142 c 2
 -77 -142 l 2
 -85 -142 -89 -138 -89 -130 c 0xe8
144 56 m 0
 144 35 152 24 169 24 c 0
 217 24 270 151 270 200 c 0
 270 222 264 237 247 237 c 0
 223 237 197 208 183 174 c 2
 163 125 l 2
 152 97 144 77 144 56 c 0
EndSplineSet
EndChar

StartChar: m
Encoding: 13 109 14
Width: 437
Flags: W
HStem: -10 44<317.5 377.5> 0 21G<10 14 14 63 145 149 149 198> 224 50<188 244.5> 235 38<75.5 78>
VStem: 287 76<40 51> 349 72<192.5 214>
LayerCount: 2
Fore
SplineSet
-20 155 m 0x54
 -20 160 -18 165 -13 174 c 0
 18 230 49 273 102 273 c 0
 121 273 135 263 141 250 c 0
 147 236 144 229 149 229 c 0x54
 153 229 154 233 164 243 c 0
 180 260 203 274 232 274 c 0
 257 274 270 263 276 250 c 0
 282 237 279 229 284 229 c 0
 288 229 289 233 299 243 c 0
 315 260 338 274 367 274 c 0
 408 274 421 245 421 220 c 0x64
 421 165 363 78 363 43 c 0
 363 37 365 34 371 34 c 0
 384 34 403 58 422 88 c 0
 427 96 430 101 437 101 c 0
 442 101 446 98 446 92 c 0
 446 87 443 81 437 71 c 0
 405 18 370 -10 332 -10 c 0
 303 -10 287 4 287 30 c 0xa8
 287 72 349 175 349 210 c 0
 349 218 346 224 334 224 c 0
 312 224 291 203 279 174 c 2
 214 12 l 2
 210 2 207 0 198 0 c 2
 149 0 l 2
 141 0 138 2 138 6 c 0
 138 9 139 12 141 17 c 0
 203 172 204 172 204 173 c 0
 210 187 214 198 214 210 c 0
 214 218 211 224 199 224 c 0
 177 224 156 203 144 174 c 2x64
 79 12 l 2
 75 2 72 0 63 0 c 2
 14 0 l 2
 6 0 3 2 3 6 c 0
 3 9 4 12 6 17 c 2
 79 198 l 2
 82 205 85 215 85 223 c 0
 85 230 82 235 74 235 c 0
 56 235 36 208 6 157 c 0
 1 149 -2 144 -9 144 c 0
 -15 144 -20 148 -20 155 c 0x54
EndSplineSet
EndChar

StartChar: n
Encoding: 14 110 15
Width: 308
Flags: W
HStem: 0 21G<7 11 11 60> 110 8 212 66
VStem: 141 79 193 80 290 18
LayerCount: 2
Fore
SplineSet
-12 144 m 0xec
 -18 144 -23 148 -23 155 c 0
 -23 160 -21 165 -16 174 c 0
 15 230 46 273 99 273 c 0
 118 273 132 263 138 250 c 0
 144 236 141 229 146 229 c 0
 150 229 151 233 161 243 c 0
 177 260 200 274 229 274 c 0
 270 274 283 245 283 220 c 0
 283 165 225 78 225 43 c 0
 225 37 227 34 233 34 c 0
 246 34 265 58 284 88 c 0
 289 96 292 101 299 101 c 0
 304 101 308 98 308 92 c 0
 308 87 305 81 299 71 c 0
 267 18 232 -10 194 -10 c 0
 165 -10 149 4 149 30 c 0
 149 72 211 175 211 210 c 0
 211 218 208 224 196 224 c 0
 174 224 153 203 141 174 c 2xf4
 76 12 l 2
 72 2 69 0 60 0 c 2
 11 0 l 2
 3 0 0 2 0 6 c 0
 0 9 1 12 3 17 c 2
 76 198 l 2
 79 205 82 215 82 223 c 0
 82 230 79 235 71 235 c 0
 53 235 33 208 3 157 c 0
 -2 149 -5 144 -12 144 c 0xec
EndSplineSet
EndChar

StartChar: z
Encoding: 18 122 16
Width: 244
Flags: W
HStem: -10 41<144 152> -1 21G<-21 -12.5> 21 45<23 100.5> 50 65<161 169> 203 54<102.5 173>
VStem: 137 69<70.5 86.5 50.5 90.5>
LayerCount: 2
Fore
SplineSet
-17 -1 m 0x4c
 -25 -1 -30 4 -30 11 c 0
 -30 19 -26 23 -18 31 c 2x4c
 136 187 l 2
 137 188 159 210 155 210 c 0
 149 210 135 203 117 203 c 0
 88 203 71 206 67 206 c 0
 61 206 59 200 56 194 c 2
 46 173 l 2
 42 164 38 158 31 158 c 0
 25 158 20 161 20 168 c 0
 20 172 21 177 23 183 c 2
 47 253 l 2
 50 262 55 266 65 266 c 0
 77 266 106 257 166 257 c 0
 180 257 196 259 207 262 c 0
 218 265 223 268 231 268 c 0
 238 268 244 264 244 257 c 0
 244 249 239 243 231 235 c 2
 71 77 l 2
 66 72 59 60 59 60 c 1
 62 60 68 66 81 66 c 0x2c
 120 66 129 31 159 31 c 0x8c
 168 31 175 35 179 42 c 0
 181 46 183 50 183 52 c 0
 183 54 182 55 180 55 c 0
 177 55 174 50 164 50 c 0
 150 50 137 61 137 80 c 0
 137 101 152 115 170 115 c 0x5c
 188 115 206 102 206 71 c 0
 206 30 180 -10 124 -10 c 0x8c
 75 -10 55 21 27 21 c 0x2c
 19 21 11 17 3 11 c 0
 -2 7 -8 -1 -17 -1 c 0x4c
EndSplineSet
EndChar

StartChar: s
Encoding: 17 115 17
Width: 229
Flags: W
HStem: 0 31 250 35
VStem: 0 68 37 49 142 59
LayerCount: 2
Fore
SplineSet
87 -10 m 0xd8
 34 -10 0 21 0 54 c 0xe8
 0 81 17 101 41 101 c 0
 60 101 77 88 77 68 c 0
 77 55 72 45 63 39 c 0
 52 32 46 34 46 29 c 0
 46 22 63 14 88 14 c 0
 120 14 139 37 139 59 c 0
 139 79 130 92 101 112 c 0
 66 136 47 155 47 190 c 0
 47 243 88 273 147 273 c 0
 198 273 229 250 229 213 c 0
 229 194 216 175 192 175 c 0
 172 175 157 187 157 207 c 0
 157 218 161 226 167 231 c 0
 174 236 179 236 179 240 c 0
 179 247 165 251 148 251 c 0
 117 251 105 234 105 218 c 0
 105 199 117 188 153 161 c 0
 192 132 202 111 202 83 c 0
 202 25 152 -10 87 -10 c 0xd8
EndSplineSet
EndChar

StartChar: r
Encoding: 16 114 18
Width: 277
Flags: W
HStem: 0 21G<10 14 14 63> 241 46 250 32
VStem: -13 18
LayerCount: 2
Fore
SplineSet
-9 144 m 0xd0
 -15 144 -20 148 -20 155 c 0
 -20 160 -18 165 -13 174 c 0
 19 234 52 273 101 273 c 0
 121 273 135 263 141 250 c 0
 148 234 144 229 149 229 c 0
 153 229 154 233 163 243 c 0
 178 260 199 274 225 274 c 0xb0
 262 274 277 250 277 221 c 0
 277 186 259 166 235 166 c 0
 214 166 199 178 199 198 c 0
 199 226 221 229 221 238 c 0
 221 242 217 244 211 244 c 0
 189 244 157 207 144 174 c 2
 79 12 l 2
 75 2 72 0 63 0 c 2
 14 0 l 2
 6 0 3 2 3 6 c 0
 3 9 4 12 6 17 c 2
 79 198 l 2
 82 205 85 215 85 223 c 0
 85 230 82 235 74 235 c 0
 56 235 36 209 6 157 c 0
 2 149 -2 144 -9 144 c 0xd0
EndSplineSet
EndChar

StartChar: f
Encoding: 12 102 19
Width: 364
Flags: W
HStem: -152 22<-76.5 -50 -76.5 -28> 233 31<10 74 16 73 207 266> 421 23<266 295>
VStem: -141 97<-79 -69.5> 270 94<358.5 374>
LayerCount: 2
Fore
SplineSet
-141 -85 m 0
 -141 -54 -119 -30 -89 -30 c 0
 -62 -30 -44 -45 -44 -71 c 0
 -44 -87 -52 -100 -64 -108 c 0
 -79 -118 -88 -113 -88 -121 c 0
 -88 -126 -83 -130 -70 -130 c 0
 -30 -130 -12 -98 16 0 c 2
 79 219 l 2
 80 224 81 227 81 229 c 0
 81 233 79 233 73 233 c 2
 15 233 l 2
 5 233 0 238 0 248 c 0
 0 259 5 264 16 264 c 2
 74 264 l 2
 88 264 89 264 94 279 c 0
 127 375 181 444 278 444 c 0
 341 444 364 414 364 377 c 0
 364 340 341 323 315 323 c 0
 290 323 270 337 270 365 c 0
 270 383 278 397 291 403 c 0
 302 408 307 407 307 413 c 0
 307 419 299 421 291 421 c 0
 241 421 219 368 199 281 c 0
 198 275 197 272 197 269 c 0
 197 264 200 264 207 264 c 2
 267 264 l 2
 277 264 282 259 282 249 c 0
 282 238 277 233 266 233 c 2
 201 233 l 2
 197 233 187 224 187 219 c 0
 163 135 141 73 112 12 c 0
 57 -101 10 -152 -66 -152 c 0
 -108 -152 -141 -129 -141 -85 c 0
EndSplineSet
EndChar

StartChar: pppppp
Encoding: 20 -1 20
Width: 2124
Flags: W
HStem: -142 25<-101.988 -43.0009 55.0022 115.988 253.012 311.999 410.002 470.988 608.012 666.999 765.002 825.988 963.012 1022 1120 1180.99 1318.01 1377 1475 1535.99 1673.01 1732 1830 1890.99> -10 34<132.877 187.778 487.877 542.778 842.877 897.778 1197.88 1252.78 1552.88 1607.78 1907.88 1962.78> 17 256<98.866 130.578 453.814 485.578 808.814 840.578 1163.81 1195.58 1518.81 1550.58 1873.81 1905.58> 235 38<50.172 123 198.047 289 404.446 478 553.047 644 759.446 833 908.047 999 1114.45 1188 1263.05 1354 1469.45 1543 1618.05 1709 1824.45 1898 1973.05 2064>
VStem: 257 96<118.911 236.92> 612 96<118.911 236.92> 967 96<118.911 236.92> 1322 96<118.911 236.92> 1677 96<118.911 236.92> 2032 96<118.911 236.92>
LayerCount: 2
Fore
SplineSet
-102 -130 m 0xafc0
 -102 -121 -98 -117 -89 -117 c 2
 -58 -117 l 2
 -48 -117 -46 -115 -43 -107 c 2
 80 198 l 2
 83 205 86 215 86 223 c 0
 86 230 83 235 75 235 c 0x9fc0
 57 235 37 209 8 159 c 0
 3 150 -1 144 -8 144 c 0
 -14 144 -19 148 -19 155 c 0
 -19 160 -17 165 -12 174 c 0
 19 231 51 273 110 273 c 0xafc0
 136 273 151 264 158 252 c 0
 167 235 164 228 169 228 c 0
 173 228 176 236 190 248 c 0
 208 264 230 274 261 274 c 0
 317 274 353 243 353 185 c 0
 353 90 275 -10 179 -10 c 0xcfc0
 162 -10 149 -8 135 -1 c 0
 119 7 116 17 111 17 c 0
 106 17 104 10 102 5 c 2
 57 -107 l 2
 56 -110 55 -113 55 -114 c 0
 55 -117 58 -117 64 -117 c 2
 104 -117 l 2
 112 -117 116 -121 116 -129 c 0
 116 -138 112 -142 103 -142 c 2
 -90 -142 l 2
 -98 -142 -102 -138 -102 -130 c 0xafc0
1685 -142 m 2
 1677 -142 1673 -138 1673 -130 c 0
 1673 -121 1677 -117 1686 -117 c 2
 1717 -117 l 2
 1727 -117 1729 -115 1732 -107 c 2
 1855 198 l 2
 1858 205 1861 215 1861 223 c 0
 1861 230 1858 235 1850 235 c 0x9fc0
 1835 235 1822 218 1812 205 c 0
 1810 203 1808 199 1808 199 c 2
 1803 192 1799 187 1792 187 c 0
 1786 187 1781 190 1781 197 c 0
 1781 202 1783 207 1789 216 c 0
 1811 247 1837 273 1885 273 c 0xafc0
 1911 273 1926 264 1933 252 c 0
 1942 235 1939 228 1944 228 c 0
 1948 228 1951 236 1965 248 c 0
 1983 264 2005 274 2036 274 c 0
 2092 274 2128 243 2128 185 c 0
 2128 90 2050 -10 1954 -10 c 0xcfc0
 1937 -10 1924 -8 1910 -1 c 0
 1894 7 1891 17 1886 17 c 0xafc0
 1881 17 1879 10 1877 5 c 2
 1832 -107 l 2
 1831 -110 1830 -113 1830 -114 c 0
 1830 -117 1833 -117 1839 -117 c 2
 1879 -117 l 2
 1887 -117 1891 -121 1891 -129 c 0
 1891 -138 1887 -142 1878 -142 c 2
 1685 -142 l 2
975 -142 m 2
 967 -142 963 -138 963 -130 c 0
 963 -121 967 -117 976 -117 c 2
 1007 -117 l 2
 1017 -117 1019 -115 1022 -107 c 2
 1145 198 l 2
 1148 205 1151 215 1151 223 c 0
 1151 230 1148 235 1140 235 c 0x9fc0
 1125 235 1112 218 1102 205 c 0
 1100 203 1098 199 1098 199 c 2
 1093 192 1089 187 1082 187 c 0
 1076 187 1071 190 1071 197 c 0
 1071 202 1073 207 1079 216 c 0
 1101 247 1127 273 1175 273 c 0xafc0
 1201 273 1216 264 1223 252 c 0
 1232 235 1229 228 1234 228 c 0
 1238 228 1241 236 1255 248 c 0
 1273 264 1295 274 1326 274 c 0
 1382 274 1418 243 1418 185 c 0
 1418 90 1340 -10 1244 -10 c 0xcfc0
 1227 -10 1214 -8 1200 -1 c 0
 1184 7 1181 17 1176 17 c 0xafc0
 1171 17 1169 10 1167 5 c 2
 1122 -107 l 2
 1121 -110 1120 -113 1120 -114 c 0
 1120 -117 1123 -117 1129 -117 c 2
 1169 -117 l 2
 1177 -117 1181 -121 1181 -129 c 0
 1181 -138 1177 -142 1168 -142 c 2
 975 -142 l 2
1318 -130 m 0
 1318 -121 1322 -117 1331 -117 c 2
 1362 -117 l 2
 1372 -117 1374 -115 1377 -107 c 2
 1500 198 l 2
 1503 205 1506 215 1506 223 c 0
 1506 230 1503 235 1495 235 c 0x9fc0
 1480 235 1467 218 1457 205 c 0
 1455 203 1453 199 1453 199 c 2
 1448 192 1444 187 1437 187 c 0
 1431 187 1426 190 1426 197 c 0
 1426 202 1428 207 1434 216 c 0
 1456 247 1482 273 1530 273 c 0xafc0
 1556 273 1571 264 1578 252 c 0
 1587 235 1584 228 1589 228 c 0
 1593 228 1596 236 1610 248 c 0
 1628 264 1650 274 1681 274 c 0
 1737 274 1773 243 1773 185 c 0
 1773 90 1695 -10 1599 -10 c 0xcfc0
 1582 -10 1569 -8 1555 -1 c 0
 1539 7 1536 17 1531 17 c 0xafc0
 1526 17 1524 10 1522 5 c 2
 1477 -107 l 2
 1476 -110 1475 -113 1475 -114 c 0
 1475 -117 1478 -117 1484 -117 c 2
 1524 -117 l 2
 1532 -117 1536 -121 1536 -129 c 0
 1536 -138 1532 -142 1523 -142 c 2
 1330 -142 l 2
 1322 -142 1318 -138 1318 -130 c 0
265 -142 m 2
 257 -142 253 -138 253 -130 c 0
 253 -121 257 -117 266 -117 c 2
 297 -117 l 2
 307 -117 309 -115 312 -107 c 2
 435 198 l 2
 438 205 441 215 441 223 c 0
 441 230 438 235 430 235 c 0x9fc0
 415 235 402 218 392 205 c 0
 390 203 388 199 388 199 c 2
 383 192 379 187 372 187 c 0
 366 187 361 190 361 197 c 0
 361 202 363 207 369 216 c 0
 391 247 417 273 465 273 c 0xafc0
 491 273 506 264 513 252 c 0
 522 235 519 228 524 228 c 0
 528 228 531 236 545 248 c 0
 563 264 585 274 616 274 c 0
 672 274 708 243 708 185 c 0
 708 90 630 -10 534 -10 c 0xcfc0
 517 -10 504 -8 490 -1 c 0
 474 7 471 17 466 17 c 0xafc0
 461 17 459 10 457 5 c 2
 412 -107 l 2
 411 -110 410 -113 410 -114 c 0
 410 -117 413 -117 419 -117 c 2
 459 -117 l 2
 467 -117 471 -121 471 -129 c 0
 471 -138 467 -142 458 -142 c 2
 265 -142 l 2
608 -130 m 0
 608 -121 612 -117 621 -117 c 2
 652 -117 l 2
 662 -117 664 -115 667 -107 c 2
 790 198 l 2
 793 205 796 215 796 223 c 0
 796 230 793 235 785 235 c 0x9fc0
 770 235 757 218 747 205 c 0
 745 203 743 199 743 199 c 2
 738 192 734 187 727 187 c 0
 721 187 716 190 716 197 c 0
 716 202 718 207 724 216 c 0
 746 247 772 273 820 273 c 0xafc0
 846 273 861 264 868 252 c 0
 877 235 874 228 879 228 c 0
 883 228 886 236 900 248 c 0
 918 264 940 274 971 274 c 0
 1027 274 1063 243 1063 185 c 0
 1063 90 985 -10 889 -10 c 0xcfc0
 872 -10 859 -8 845 -1 c 0
 829 7 826 17 821 17 c 0xafc0
 816 17 814 10 812 5 c 2
 767 -107 l 2
 766 -110 765 -113 765 -114 c 0
 765 -117 768 -117 774 -117 c 2
 814 -117 l 2
 822 -117 826 -121 826 -129 c 0
 826 -138 822 -142 813 -142 c 2
 620 -142 l 2
 612 -142 608 -138 608 -130 c 0
1570 125 m 2
 1559 97 1551 77 1551 56 c 0
 1551 35 1559 24 1576 24 c 0xcfc0
 1624 24 1677 151 1677 200 c 0
 1677 222 1671 237 1654 237 c 0
 1630 237 1604 208 1590 174 c 2
 1570 125 l 2
1925 125 m 2
 1914 97 1906 77 1906 56 c 0
 1906 35 1914 24 1931 24 c 0
 1979 24 2032 151 2032 200 c 0
 2032 222 2026 237 2009 237 c 0
 1985 237 1959 208 1945 174 c 2
 1925 125 l 2
841 56 m 0
 841 35 849 24 866 24 c 0
 914 24 967 151 967 200 c 0
 967 222 961 237 944 237 c 0
 920 237 894 208 880 174 c 2
 860 125 l 2
 849 97 841 77 841 56 c 0
486 56 m 0
 486 35 494 24 511 24 c 0
 559 24 612 151 612 200 c 0
 612 222 606 237 589 237 c 0
 565 237 539 208 525 174 c 2
 505 125 l 2
 494 97 486 77 486 56 c 0
150 125 m 2
 139 97 131 77 131 56 c 0
 131 35 139 24 156 24 c 0
 204 24 257 151 257 200 c 0
 257 222 251 237 234 237 c 0
 210 237 184 208 170 174 c 2
 150 125 l 2
1215 125 m 2
 1204 97 1196 77 1196 56 c 0
 1196 35 1204 24 1221 24 c 0
 1269 24 1322 151 1322 200 c 0
 1322 222 1316 237 1299 237 c 0
 1275 237 1249 208 1235 174 c 2
 1215 125 l 2
EndSplineSet
Ligature2: "'liga' Standard Ligatures in Latin lookup 0-1" p p p p p p
EndChar

StartChar: ppppp
Encoding: 21 -1 21
Width: 1776
Flags: W
HStem: -142 25<-94 -58 -89 -58 -58 -53 64 103 266 297 297 302 419 458 621 652 652 657 774 813 976 1007 1007 1012 1129 1168 1331 1362 1362 1367 1484 1523> -10 34<170.5 180 147.5 227 525.5 535 880.5 890 1235.5 1245 1590.5 1600> 237 37<222 289>
VStem: 257 96<175.5 211> 361 27<199 199 199 199.5> 612 96<175.5 211> 716 27<199 199 199 199.5> 967 96<175.5 211> 1071 27<199 199 199 199.5> 1322 96<175.5 211> 1426 27<199 199 199 199.5> 1677 96<175.5 211>
LayerCount: 2
Fore
SplineSet
-102 -130 m 0
 -102 -121 -98 -117 -89 -117 c 2
 -58 -117 l 2
 -48 -117 -46 -115 -43 -107 c 2
 80 198 l 2
 83 205 86 215 86 223 c 0
 86 230 83 235 75 235 c 0
 57 235 37 209 8 159 c 0
 3 150 -1 144 -8 144 c 0
 -14 144 -19 148 -19 155 c 0
 -19 160 -17 165 -12 174 c 0
 19 231 51 273 110 273 c 0
 136 273 151 264 158 252 c 0
 167 235 164 228 169 228 c 0
 173 228 176 236 190 248 c 0
 208 264 230 274 261 274 c 0
 317 274 353 243 353 185 c 0
 353 90 275 -10 179 -10 c 0
 162 -10 149 -8 135 -1 c 0
 119 7 116 17 111 17 c 0
 106 17 104 10 102 5 c 2
 57 -107 l 2
 56 -110 55 -113 55 -114 c 0
 55 -117 58 -117 64 -117 c 2
 104 -117 l 2
 112 -117 116 -121 116 -129 c 0
 116 -138 112 -142 103 -142 c 2
 -90 -142 l 2
 -98 -142 -102 -138 -102 -130 c 0
1318 -130 m 0
 1318 -121 1322 -117 1331 -117 c 2
 1362 -117 l 2
 1372 -117 1374 -115 1377 -107 c 2
 1500 198 l 2
 1503 205 1506 215 1506 223 c 0
 1506 230 1503 235 1495 235 c 0
 1480 235 1467 218 1457 205 c 0
 1455 203 1453 199 1453 199 c 2
 1448 192 1444 187 1437 187 c 0
 1431 187 1426 190 1426 197 c 0
 1426 202 1428 207 1434 216 c 0
 1456 247 1482 273 1530 273 c 0
 1556 273 1571 264 1578 252 c 0
 1587 235 1584 228 1589 228 c 0
 1593 228 1596 236 1610 248 c 0
 1628 264 1650 274 1681 274 c 0
 1737 274 1773 243 1773 185 c 0
 1773 90 1695 -10 1599 -10 c 0
 1582 -10 1569 -8 1555 -1 c 0
 1539 7 1536 17 1531 17 c 0
 1526 17 1524 10 1522 5 c 2
 1477 -107 l 2
 1476 -110 1475 -113 1475 -114 c 0
 1475 -117 1478 -117 1484 -117 c 2
 1524 -117 l 2
 1532 -117 1536 -121 1536 -129 c 0
 1536 -138 1532 -142 1523 -142 c 2
 1330 -142 l 2
 1322 -142 1318 -138 1318 -130 c 0
963 -130 m 0
 963 -121 967 -117 976 -117 c 2
 1007 -117 l 2
 1017 -117 1019 -115 1022 -107 c 2
 1145 198 l 2
 1148 205 1151 215 1151 223 c 0
 1151 230 1148 235 1140 235 c 0
 1125 235 1112 218 1102 205 c 0
 1100 203 1098 199 1098 199 c 2
 1093 192 1089 187 1082 187 c 0
 1076 187 1071 190 1071 197 c 0
 1071 202 1073 207 1079 216 c 0
 1101 247 1127 273 1175 273 c 0
 1201 273 1216 264 1223 252 c 0
 1232 235 1229 228 1234 228 c 0
 1238 228 1241 236 1255 248 c 0
 1273 264 1295 274 1326 274 c 0
 1382 274 1418 243 1418 185 c 0
 1418 90 1340 -10 1244 -10 c 0
 1227 -10 1214 -8 1200 -1 c 0
 1184 7 1181 17 1176 17 c 0
 1171 17 1169 10 1167 5 c 2
 1122 -107 l 2
 1121 -110 1120 -113 1120 -114 c 0
 1120 -117 1123 -117 1129 -117 c 2
 1169 -117 l 2
 1177 -117 1181 -121 1181 -129 c 0
 1181 -138 1177 -142 1168 -142 c 2
 975 -142 l 2
 967 -142 963 -138 963 -130 c 0
620 -142 m 2
 612 -142 608 -138 608 -130 c 0
 608 -121 612 -117 621 -117 c 2
 652 -117 l 2
 662 -117 664 -115 667 -107 c 2
 790 198 l 2
 793 205 796 215 796 223 c 0
 796 230 793 235 785 235 c 0
 770 235 757 218 747 205 c 0
 745 203 743 199 743 199 c 2
 738 192 734 187 727 187 c 0
 721 187 716 190 716 197 c 0
 716 202 718 207 724 216 c 0
 746 247 772 273 820 273 c 0
 846 273 861 264 868 252 c 0
 877 235 874 228 879 228 c 0
 883 228 886 236 900 248 c 0
 918 264 940 274 971 274 c 0
 1027 274 1063 243 1063 185 c 0
 1063 90 985 -10 889 -10 c 0
 872 -10 859 -8 845 -1 c 0
 829 7 826 17 821 17 c 0
 816 17 814 10 812 5 c 2
 767 -107 l 2
 766 -110 765 -113 765 -114 c 0
 765 -117 768 -117 774 -117 c 2
 814 -117 l 2
 822 -117 826 -121 826 -129 c 0
 826 -138 822 -142 813 -142 c 2
 620 -142 l 2
253 -130 m 0
 253 -121 257 -117 266 -117 c 2
 297 -117 l 2
 307 -117 309 -115 312 -107 c 2
 435 198 l 2
 438 205 441 215 441 223 c 0
 441 230 438 235 430 235 c 0
 415 235 402 218 392 205 c 0
 390 203 388 199 388 199 c 2
 383 192 379 187 372 187 c 0
 366 187 361 190 361 197 c 0
 361 202 363 207 369 216 c 0
 391 247 417 273 465 273 c 0
 491 273 506 264 513 252 c 0
 522 235 519 228 524 228 c 0
 528 228 531 236 545 248 c 0
 563 264 585 274 616 274 c 0
 672 274 708 243 708 185 c 0
 708 90 630 -10 534 -10 c 0
 517 -10 504 -8 490 -1 c 0
 474 7 471 17 466 17 c 0
 461 17 459 10 457 5 c 2
 412 -107 l 2
 411 -110 410 -113 410 -114 c 0
 410 -117 413 -117 419 -117 c 2
 459 -117 l 2
 467 -117 471 -121 471 -129 c 0
 471 -138 467 -142 458 -142 c 2
 265 -142 l 2
 257 -142 253 -138 253 -130 c 0
1196 56 m 0
 1196 35 1204 24 1221 24 c 0
 1269 24 1322 151 1322 200 c 0
 1322 222 1316 237 1299 237 c 0
 1275 237 1249 208 1235 174 c 2
 1215 125 l 2
 1204 97 1196 77 1196 56 c 0
1570 125 m 2
 1559 97 1551 77 1551 56 c 0
 1551 35 1559 24 1576 24 c 0
 1624 24 1677 151 1677 200 c 0
 1677 222 1671 237 1654 237 c 0
 1630 237 1604 208 1590 174 c 2
 1570 125 l 2
505 125 m 2
 494 97 486 77 486 56 c 0
 486 35 494 24 511 24 c 0
 559 24 612 151 612 200 c 0
 612 222 606 237 589 237 c 0
 565 237 539 208 525 174 c 2
 505 125 l 2
131 56 m 0
 131 35 139 24 156 24 c 0
 204 24 257 151 257 200 c 0
 257 222 251 237 234 237 c 0
 210 237 184 208 170 174 c 2
 150 125 l 2
 139 97 131 77 131 56 c 0
860 125 m 2
 849 97 841 77 841 56 c 0
 841 35 849 24 866 24 c 0
 914 24 967 151 967 200 c 0
 967 222 961 237 944 237 c 0
 920 237 894 208 880 174 c 2
 860 125 l 2
EndSplineSet
Ligature2: "'liga' Standard Ligatures in Latin lookup 0-1" p p p p p
EndChar

StartChar: pppp
Encoding: 22 -1 22
Width: 1417
Flags: W
HStem: -142 25<-94 -58 -89 -58 -58 -53 64 103 266 297 297 302 419 458 621 652 652 657 774 813 976 1007 1007 1012 1129 1168> -10 34<170.5 180 147.5 227 525.5 535 880.5 890 1235.5 1245> 237 37<222 289>
VStem: 257 96<175.5 211> 361 27<199 199 199 199.5> 612 96<175.5 211> 716 27<199 199 199 199.5> 967 96<175.5 211> 1071 27<199 199 199 199.5> 1322 96<175.5 211>
LayerCount: 2
Fore
SplineSet
-102 -130 m 0
 -102 -121 -98 -117 -89 -117 c 2
 -58 -117 l 2
 -48 -117 -46 -115 -43 -107 c 2
 80 198 l 2
 83 205 86 215 86 223 c 0
 86 230 83 235 75 235 c 0
 57 235 37 209 8 159 c 0
 3 150 -1 144 -8 144 c 0
 -14 144 -19 148 -19 155 c 0
 -19 160 -17 165 -12 174 c 0
 19 231 51 273 110 273 c 0
 136 273 151 264 158 252 c 0
 167 235 164 228 169 228 c 0
 173 228 176 236 190 248 c 0
 208 264 230 274 261 274 c 0
 317 274 353 243 353 185 c 0
 353 90 275 -10 179 -10 c 0
 162 -10 149 -8 135 -1 c 0
 119 7 116 17 111 17 c 0
 106 17 104 10 102 5 c 2
 57 -107 l 2
 56 -110 55 -113 55 -114 c 0
 55 -117 58 -117 64 -117 c 2
 104 -117 l 2
 112 -117 116 -121 116 -129 c 0
 116 -138 112 -142 103 -142 c 2
 -90 -142 l 2
 -98 -142 -102 -138 -102 -130 c 0
963 -130 m 0
 963 -121 967 -117 976 -117 c 2
 1007 -117 l 2
 1017 -117 1019 -115 1022 -107 c 2
 1145 198 l 2
 1148 205 1151 215 1151 223 c 0
 1151 230 1148 235 1140 235 c 0
 1125 235 1112 218 1102 205 c 0
 1100 203 1098 199 1098 199 c 2
 1093 192 1089 187 1082 187 c 0
 1076 187 1071 190 1071 197 c 0
 1071 202 1073 207 1079 216 c 0
 1101 247 1127 273 1175 273 c 0
 1201 273 1216 264 1223 252 c 0
 1232 235 1229 228 1234 228 c 0
 1238 228 1241 236 1255 248 c 0
 1273 264 1295 274 1326 274 c 0
 1382 274 1418 243 1418 185 c 0
 1418 90 1340 -10 1244 -10 c 0
 1227 -10 1214 -8 1200 -1 c 0
 1184 7 1181 17 1176 17 c 0
 1171 17 1169 10 1167 5 c 2
 1122 -107 l 2
 1121 -110 1120 -113 1120 -114 c 0
 1120 -117 1123 -117 1129 -117 c 2
 1169 -117 l 2
 1177 -117 1181 -121 1181 -129 c 0
 1181 -138 1177 -142 1168 -142 c 2
 975 -142 l 2
 967 -142 963 -138 963 -130 c 0
253 -130 m 0
 253 -121 257 -117 266 -117 c 2
 297 -117 l 2
 307 -117 309 -115 312 -107 c 2
 435 198 l 2
 438 205 441 215 441 223 c 0
 441 230 438 235 430 235 c 0
 415 235 402 218 392 205 c 0
 390 203 388 199 388 199 c 2
 383 192 379 187 372 187 c 0
 366 187 361 190 361 197 c 0
 361 202 363 207 369 216 c 0
 391 247 417 273 465 273 c 0
 491 273 506 264 513 252 c 0
 522 235 519 228 524 228 c 0
 528 228 531 236 545 248 c 0
 563 264 585 274 616 274 c 0
 672 274 708 243 708 185 c 0
 708 90 630 -10 534 -10 c 0
 517 -10 504 -8 490 -1 c 0
 474 7 471 17 466 17 c 0
 461 17 459 10 457 5 c 2
 412 -107 l 2
 411 -110 410 -113 410 -114 c 0
 410 -117 413 -117 419 -117 c 2
 459 -117 l 2
 467 -117 471 -121 471 -129 c 0
 471 -138 467 -142 458 -142 c 2
 265 -142 l 2
 257 -142 253 -138 253 -130 c 0
608 -130 m 0
 608 -121 612 -117 621 -117 c 2
 652 -117 l 2
 662 -117 664 -115 667 -107 c 2
 790 198 l 2
 793 205 796 215 796 223 c 0
 796 230 793 235 785 235 c 0
 770 235 757 218 747 205 c 0
 745 203 743 199 743 199 c 2
 738 192 734 187 727 187 c 0
 721 187 716 190 716 197 c 0
 716 202 718 207 724 216 c 0
 746 247 772 273 820 273 c 0
 846 273 861 264 868 252 c 0
 877 235 874 228 879 228 c 0
 883 228 886 236 900 248 c 0
 918 264 940 274 971 274 c 0
 1027 274 1063 243 1063 185 c 0
 1063 90 985 -10 889 -10 c 0
 872 -10 859 -8 845 -1 c 0
 829 7 826 17 821 17 c 0
 816 17 814 10 812 5 c 2
 767 -107 l 2
 766 -110 765 -113 765 -114 c 0
 765 -117 768 -117 774 -117 c 2
 814 -117 l 2
 822 -117 826 -121 826 -129 c 0
 826 -138 822 -142 813 -142 c 2
 620 -142 l 2
 612 -142 608 -138 608 -130 c 0
860 125 m 2
 849 97 841 77 841 56 c 0
 841 35 849 24 866 24 c 0
 914 24 967 151 967 200 c 0
 967 222 961 237 944 237 c 0
 920 237 894 208 880 174 c 2
 860 125 l 2
486 56 m 0
 486 35 494 24 511 24 c 0
 559 24 612 151 612 200 c 0
 612 222 606 237 589 237 c 0
 565 237 539 208 525 174 c 2
 505 125 l 2
 494 97 486 77 486 56 c 0
131 56 m 0
 131 35 139 24 156 24 c 0
 204 24 257 151 257 200 c 0
 257 222 251 237 234 237 c 0
 210 237 184 208 170 174 c 2
 150 125 l 2
 139 97 131 77 131 56 c 0
1196 56 m 0
 1196 35 1204 24 1221 24 c 0
 1269 24 1322 151 1322 200 c 0
 1322 222 1316 237 1299 237 c 0
 1275 237 1249 208 1235 174 c 2
 1215 125 l 2
 1204 97 1196 77 1196 56 c 0
EndSplineSet
Ligature2: "'liga' Standard Ligatures in Latin lookup 0-1" p p p p
EndChar

StartChar: ppp
Encoding: 23 -1 23
Width: 1072
Flags: W
HStem: -142 25<-84 -48 -79 -48 -48 -43 74 113 276 307 307 312 429 468 631 662 662 667 784 823> -10 34<180.5 190 157.5 237 535.5 545 890.5 900> 237 37<232 299>
VStem: 267 96<175.5 211> 371 27<199 199 199 199.5> 622 96<175.5 211> 726 27<199 199 199 199.5> 977 96<175.5 211>
LayerCount: 2
Fore
SplineSet
-92 -130 m 0
 -92 -121 -88 -117 -79 -117 c 2
 -48 -117 l 2
 -38 -117 -36 -115 -33 -107 c 2
 90 198 l 2
 93 205 96 215 96 223 c 0
 96 230 93 235 85 235 c 0
 67 235 47 209 18 159 c 0
 13 150 9 144 2 144 c 0
 -4 144 -9 148 -9 155 c 0
 -9 160 -7 165 -2 174 c 0
 29 231 61 273 120 273 c 0
 146 273 161 264 168 252 c 0
 177 235 174 228 179 228 c 0
 183 228 186 236 200 248 c 0
 218 264 240 274 271 274 c 0
 327 274 363 243 363 185 c 0
 363 90 285 -10 189 -10 c 0
 172 -10 159 -8 145 -1 c 0
 129 7 126 17 121 17 c 0
 116 17 114 10 112 5 c 2
 67 -107 l 2
 66 -110 65 -113 65 -114 c 0
 65 -117 68 -117 74 -117 c 2
 114 -117 l 2
 122 -117 126 -121 126 -129 c 0
 126 -138 122 -142 113 -142 c 2
 -80 -142 l 2
 -88 -142 -92 -138 -92 -130 c 0
618 -130 m 0
 618 -121 622 -117 631 -117 c 2
 662 -117 l 2
 672 -117 674 -115 677 -107 c 2
 800 198 l 2
 803 205 806 215 806 223 c 0
 806 230 803 235 795 235 c 0
 780 235 767 218 757 205 c 0
 755 203 753 199 753 199 c 2
 748 192 744 187 737 187 c 0
 731 187 726 190 726 197 c 0
 726 202 728 207 734 216 c 0
 756 247 782 273 830 273 c 0
 856 273 871 264 878 252 c 0
 887 235 884 228 889 228 c 0
 893 228 896 236 910 248 c 0
 928 264 950 274 981 274 c 0
 1037 274 1073 243 1073 185 c 0
 1073 90 995 -10 899 -10 c 0
 882 -10 869 -8 855 -1 c 0
 839 7 836 17 831 17 c 0
 826 17 824 10 822 5 c 2
 777 -107 l 2
 776 -110 775 -113 775 -114 c 0
 775 -117 778 -117 784 -117 c 2
 824 -117 l 2
 832 -117 836 -121 836 -129 c 0
 836 -138 832 -142 823 -142 c 2
 630 -142 l 2
 622 -142 618 -138 618 -130 c 0
263 -130 m 0
 263 -121 267 -117 276 -117 c 2
 307 -117 l 2
 317 -117 319 -115 322 -107 c 2
 445 198 l 2
 448 205 451 215 451 223 c 0
 451 230 448 235 440 235 c 0
 425 235 412 218 402 205 c 0
 400 203 398 199 398 199 c 2
 393 192 389 187 382 187 c 0
 376 187 371 190 371 197 c 0
 371 202 373 207 379 216 c 0
 401 247 427 273 475 273 c 0
 501 273 516 264 523 252 c 0
 532 235 529 228 534 228 c 0
 538 228 541 236 555 248 c 0
 573 264 595 274 626 274 c 0
 682 274 718 243 718 185 c 0
 718 90 640 -10 544 -10 c 0
 527 -10 514 -8 500 -1 c 0
 484 7 481 17 476 17 c 0
 471 17 469 10 467 5 c 2
 422 -107 l 2
 421 -110 420 -113 420 -114 c 0
 420 -117 423 -117 429 -117 c 2
 469 -117 l 2
 477 -117 481 -121 481 -129 c 0
 481 -138 477 -142 468 -142 c 2
 275 -142 l 2
 267 -142 263 -138 263 -130 c 0
515 125 m 2
 504 97 496 77 496 56 c 0
 496 35 504 24 521 24 c 0
 569 24 622 151 622 200 c 0
 622 222 616 237 599 237 c 0
 575 237 549 208 535 174 c 2
 515 125 l 2
851 56 m 0
 851 35 859 24 876 24 c 0
 924 24 977 151 977 200 c 0
 977 222 971 237 954 237 c 0
 930 237 904 208 890 174 c 2
 870 125 l 2
 859 97 851 77 851 56 c 0
160 125 m 2
 149 97 141 77 141 56 c 0
 141 35 149 24 166 24 c 0
 214 24 267 151 267 200 c 0
 267 222 261 237 244 237 c 0
 220 237 194 208 180 174 c 2
 160 125 l 2
EndSplineSet
Ligature2: "'liga' Standard Ligatures in Latin lookup 0-1" p p p
EndChar

StartChar: pp
Encoding: 24 -1 24
Width: 727
Flags: W
HStem: -142 25<-74 -38 -69 -38 -38 -33 84 123 286 317 317 322 439 478> -10 34<190.5 200 167.5 247 545.5 555> 237 37<242 309>
VStem: 277 96<175.5 211> 381 27<199 199 199 199.5> 632 96<175.5 211>
LayerCount: 2
Fore
SplineSet
-70 -142 m 2
 -78 -142 -82 -138 -82 -130 c 0
 -82 -121 -78 -117 -69 -117 c 2
 -38 -117 l 2
 -28 -117 -26 -115 -23 -107 c 2
 100 198 l 2
 103 205 106 215 106 223 c 0
 106 230 103 235 95 235 c 0
 77 235 57 209 28 159 c 0
 23 150 19 144 12 144 c 0
 6 144 1 148 1 155 c 0
 1 160 3 165 8 174 c 0
 39 231 71 273 130 273 c 0
 156 273 171 264 178 252 c 0
 187 235 184 228 189 228 c 0
 193 228 196 236 210 248 c 0
 228 264 250 274 281 274 c 0
 337 274 373 243 373 185 c 0
 373 90 295 -10 199 -10 c 0
 182 -10 169 -8 155 -1 c 0
 139 7 136 17 131 17 c 0
 126 17 124 10 122 5 c 2
 77 -107 l 2
 76 -110 75 -113 75 -114 c 0
 75 -117 78 -117 84 -117 c 2
 124 -117 l 2
 132 -117 136 -121 136 -129 c 0
 136 -138 132 -142 123 -142 c 2
 -70 -142 l 2
285 -142 m 2
 277 -142 273 -138 273 -130 c 0
 273 -121 277 -117 286 -117 c 2
 317 -117 l 2
 327 -117 329 -115 332 -107 c 2
 455 198 l 2
 458 205 461 215 461 223 c 0
 461 230 458 235 450 235 c 0
 435 235 422 218 412 205 c 0
 410 203 408 199 408 199 c 2
 403 192 399 187 392 187 c 0
 386 187 381 190 381 197 c 0
 381 202 383 207 389 216 c 0
 411 247 437 273 485 273 c 0
 511 273 526 264 533 252 c 0
 542 235 539 228 544 228 c 0
 548 228 551 236 565 248 c 0
 583 264 605 274 636 274 c 0
 692 274 728 243 728 185 c 0
 728 90 650 -10 554 -10 c 0
 537 -10 524 -8 510 -1 c 0
 494 7 491 17 486 17 c 0
 481 17 479 10 477 5 c 2
 432 -107 l 2
 431 -110 430 -113 430 -114 c 0
 430 -117 433 -117 439 -117 c 2
 479 -117 l 2
 487 -117 491 -121 491 -129 c 0
 491 -138 487 -142 478 -142 c 2
 285 -142 l 2
506 56 m 0
 506 35 514 24 531 24 c 0
 579 24 632 151 632 200 c 0
 632 222 626 237 609 237 c 0
 585 237 559 208 545 174 c 2
 525 125 l 2
 514 97 506 77 506 56 c 0
151 56 m 0
 151 35 159 24 176 24 c 0
 224 24 277 151 277 200 c 0
 277 222 271 237 254 237 c 0
 230 237 204 208 190 174 c 2
 170 125 l 2
 159 97 151 77 151 56 c 0
EndSplineSet
Ligature2: "'liga' Standard Ligatures in Latin lookup 0-1" p p
EndChar

StartChar: mp
Encoding: 25 -1 25
Width: 826
Flags: W
HStem: -142 25<378 414 383 414 414 419 536 575> -10 34<642.5 652 619.5 699> -10 44<317.5 381> 0 21G<10 14 14 63 145 149 149 198> 224 50<188 244.5> 235 38<75.5 78 544.5 552>
VStem: 287 76<40 51> 349 72<192.5 214> 729 96<175.5 211>
LayerCount: 2
Fore
SplineSet
-9 144 m 0x9580
 -15 144 -20 148 -20 155 c 0
 -20 160 -18 165 -13 174 c 0
 18 230 49 273 102 273 c 0xc580
 121 273 135 263 141 250 c 0
 147 236 144 229 149 229 c 0
 153 229 154 233 164 243 c 0
 180 260 203 274 232 274 c 0
 257 274 270 263 276 250 c 0
 282 237 279 229 284 229 c 0
 288 229 289 233 299 243 c 0
 315 260 338 274 367 274 c 0
 408 274 421 245 421 220 c 0x9980
 421 165 363 78 363 43 c 0
 363 37 365 34 371 34 c 0
 391 34 416 71 444 132 c 2
 451 148 l 2
 475 202 507 273 582 273 c 0
 608 273 623 264 630 252 c 0xa680
 639 235 636 228 641 228 c 0
 645 228 648 236 662 248 c 0
 680 264 702 274 733 274 c 0x9980
 789 274 825 243 825 185 c 0
 825 90 747 -10 651 -10 c 0
 634 -10 621 -8 607 -1 c 0
 591 7 588 17 583 17 c 0
 578 17 576 10 574 5 c 2
 529 -107 l 2
 528 -110 527 -113 527 -114 c 0
 527 -117 530 -117 536 -117 c 2
 576 -117 l 2
 584 -117 588 -121 588 -129 c 0
 588 -138 584 -142 575 -142 c 2
 382 -142 l 2
 374 -142 370 -138 370 -130 c 0
 370 -121 374 -117 383 -117 c 2
 414 -117 l 2
 424 -117 426 -115 429 -107 c 2
 552 198 l 2
 555 205 558 215 558 223 c 0
 558 230 556 235 548 235 c 0
 522 235 496 184 466 116 c 0
 435 45 395 -10 332 -10 c 0
 303 -10 287 4 287 30 c 0xc680
 287 72 349 175 349 210 c 0
 349 218 346 224 334 224 c 0
 312 224 291 203 279 174 c 2
 214 12 l 2
 210 2 207 0 198 0 c 2
 149 0 l 2
 141 0 138 2 138 6 c 0
 138 9 139 12 141 17 c 0
 203 172 204 172 204 173 c 0
 210 187 214 198 214 210 c 0
 214 218 211 224 199 224 c 0x9980
 177 224 156 203 144 174 c 2
 79 12 l 2
 75 2 72 0 63 0 c 2
 14 0 l 2
 6 0 3 2 3 6 c 0
 3 9 4 12 6 17 c 2
 79 198 l 2
 82 205 85 215 85 223 c 0
 85 230 82 235 74 235 c 0
 56 235 36 208 6 157 c 0
 1 149 -2 144 -9 144 c 0x9580
603 56 m 0
 603 35 611 24 628 24 c 0
 676 24 729 151 729 200 c 0
 729 222 723 237 706 237 c 0
 682 237 656 208 642 174 c 2
 622 125 l 2
 611 97 603 77 603 56 c 0
EndSplineSet
Ligature2: "'liga' Standard Ligatures in Latin lookup 0-1" m p
EndChar

StartChar: mf
Encoding: 26 -1 26
Width: 797
Flags: W
HStem: -165 22<377.5 404 377.5 426> -10 44<317.5 377.5> 0 21G<10 14 14 63 145 149 149 198> 220 31<464 528 470 527 661 720> 224 50<188 244.5> 235 38<75.5 78> 408 23<720 749>
VStem: 287 76<40 51> 313 97<-92 -82.5> 349 72<192.5 214> 724 94<345.5 361>
LayerCount: 2
Fore
SplineSet
388 -165 m 0xb2a0
 346 -165 313 -142 313 -98 c 0
 313 -67 335 -43 365 -43 c 0
 392 -43 410 -58 410 -84 c 0
 410 -100 402 -113 390 -121 c 0
 375 -131 366 -126 366 -134 c 0
 366 -139 371 -143 384 -143 c 0
 424 -143 442 -111 470 -13 c 2
 533 206 l 2
 534 211 535 214 535 216 c 0
 535 220 533 220 527 220 c 2
 469 220 l 2
 459 220 454 225 454 235 c 0
 454 246 459 251 470 251 c 2
 528 251 l 2
 542 251 543 251 548 266 c 0
 581 362 635 431 732 431 c 0
 795 431 818 401 818 364 c 0
 818 327 795 310 769 310 c 0
 744 310 724 324 724 352 c 0
 724 370 732 384 745 390 c 0
 756 395 761 394 761 400 c 0
 761 406 753 408 745 408 c 0
 695 408 673 355 653 268 c 0
 652 262 651 259 651 256 c 0
 651 251 654 251 661 251 c 2
 721 251 l 2
 731 251 736 246 736 236 c 0
 736 225 731 220 720 220 c 2
 655 220 l 2
 651 220 641 211 641 206 c 0
 617 122 595 60 566 -1 c 0
 511 -114 464 -165 388 -165 c 0xb2a0
-20 155 m 0xa660
 -20 160 -18 165 -13 174 c 0
 18 230 49 273 102 273 c 0
 121 273 135 263 141 250 c 0
 147 236 144 229 149 229 c 0xa660
 153 229 154 233 164 243 c 0
 180 260 203 274 232 274 c 0
 257 274 270 263 276 250 c 0
 282 237 279 229 284 229 c 0
 288 229 289 233 299 243 c 0
 315 260 338 274 367 274 c 0
 408 274 421 245 421 220 c 0xaa60
 421 165 363 78 363 43 c 0
 363 37 365 34 371 34 c 0
 384 34 403 58 422 88 c 0
 427 96 430 101 437 101 c 0
 442 101 446 98 446 92 c 0
 446 87 443 81 437 71 c 0
 405 18 370 -10 332 -10 c 0
 303 -10 287 4 287 30 c 0xd320
 287 72 349 175 349 210 c 0
 349 218 346 224 334 224 c 0
 312 224 291 203 279 174 c 2
 214 12 l 2
 210 2 207 0 198 0 c 2
 149 0 l 2
 141 0 138 2 138 6 c 0
 138 9 139 12 141 17 c 0
 203 172 204 172 204 173 c 0
 210 187 214 198 214 210 c 0
 214 218 211 224 199 224 c 0
 177 224 156 203 144 174 c 2xaa60
 79 12 l 2
 75 2 72 0 63 0 c 2
 14 0 l 2
 6 0 3 2 3 6 c 0
 3 9 4 12 6 17 c 2
 79 198 l 2
 82 205 85 215 85 223 c 0
 85 230 82 235 74 235 c 0
 56 235 36 208 6 157 c 0
 1 149 -2 144 -9 144 c 0
 -15 144 -20 148 -20 155 c 0xa660
EndSplineSet
Ligature2: "'liga' Standard Ligatures in Latin lookup 0-1" m f
EndChar

StartChar: pf
Encoding: 27 -1 27
Width: 770
Flags: W
HStem: -152 22<329.5 356 329.5 378> -142 25<-64 -28 -59 -28 -28 -23 94 133> -10 34<200.5 210 177.5 257> 233 31<416 480 422 479 613 672> 237 37<252 319> 421 23<672 701>
VStem: 265 97<-79 -69.5> 287 96<175.5 211> 676 94<358.5 374>
LayerCount: 2
Fore
SplineSet
-72 -130 m 0xb580
 -72 -121 -68 -117 -59 -117 c 2
 -28 -117 l 2
 -18 -117 -16 -115 -13 -107 c 2
 110 198 l 2
 113 205 116 215 116 223 c 0
 116 230 113 235 105 235 c 0
 87 235 67 209 38 159 c 0
 33 150 29 144 22 144 c 0
 16 144 11 148 11 155 c 0
 11 160 13 165 18 174 c 0
 49 231 81 273 140 273 c 0
 166 273 181 264 188 252 c 0
 197 235 194 228 199 228 c 0
 203 228 206 236 220 248 c 0x7580
 238 264 260 274 291 274 c 0
 347 274 383 243 383 185 c 0
 383 90 305 -10 209 -10 c 0
 192 -10 179 -8 165 -1 c 0
 149 7 146 17 141 17 c 0
 136 17 134 10 132 5 c 2
 87 -107 l 2
 86 -110 85 -113 85 -114 c 0
 85 -117 88 -117 94 -117 c 2
 134 -117 l 2
 142 -117 146 -121 146 -129 c 0
 146 -138 142 -142 133 -142 c 2
 -60 -142 l 2x6d80
 -68 -142 -72 -138 -72 -130 c 0xb580
265 -85 m 0
 265 -54 287 -30 317 -30 c 0
 344 -30 362 -45 362 -71 c 0
 362 -87 354 -100 342 -108 c 0
 327 -118 318 -113 318 -121 c 0
 318 -126 323 -130 336 -130 c 0
 376 -130 394 -98 422 0 c 2
 485 219 l 2
 486 224 487 227 487 229 c 0
 487 233 485 233 479 233 c 2
 421 233 l 2
 411 233 406 238 406 248 c 0
 406 259 411 264 422 264 c 2
 480 264 l 2
 494 264 495 264 500 279 c 0
 533 375 587 444 684 444 c 0
 747 444 770 414 770 377 c 0
 770 340 747 323 721 323 c 0
 696 323 676 337 676 365 c 0
 676 383 684 397 697 403 c 0
 708 408 713 407 713 413 c 0
 713 419 705 421 697 421 c 0
 647 421 625 368 605 281 c 0
 604 275 603 272 603 269 c 0
 603 264 606 264 613 264 c 2
 673 264 l 2
 683 264 688 259 688 249 c 0
 688 238 683 233 672 233 c 2
 607 233 l 2
 603 233 593 224 593 219 c 0
 569 135 547 73 518 12 c 0
 463 -101 416 -152 340 -152 c 0
 298 -152 265 -129 265 -85 c 0
161 56 m 0
 161 35 169 24 186 24 c 0
 234 24 287 151 287 200 c 0x7580
 287 222 281 237 264 237 c 0
 240 237 214 208 200 174 c 2
 180 125 l 2
 169 97 161 77 161 56 c 0
EndSplineSet
Ligature2: "'liga' Standard Ligatures in Latin lookup 0-1" p f
EndChar

StartChar: ff
Encoding: 28 -1 28
Width: 609
Flags: W
HStem: -152 22<-70.5 -44 -70.5 -22 172 196> 233 31<16 80 22 79 213 319 453 512> 421 23<259.5 281.5 512 541>
VStem: -135 97<-79 -69.5> 108 90<-85 -74.5> 269 86<372.5 392.5> 516 94<358.5 374>
LayerCount: 2
Fore
SplineSet
-135 -85 m 0
 -135 -54 -113 -30 -83 -30 c 0
 -56 -30 -38 -45 -38 -71 c 0
 -38 -87 -46 -100 -58 -108 c 0
 -73 -118 -82 -113 -82 -121 c 0
 -82 -126 -77 -130 -64 -130 c 0
 -24 -130 -6 -98 22 0 c 2
 85 219 l 2
 86 224 87 227 87 229 c 0
 87 233 85 233 79 233 c 2
 21 233 l 2
 11 233 6 238 6 248 c 0
 6 259 11 264 22 264 c 2
 80 264 l 2
 94 264 95 264 100 279 c 0
 133 376 180 444 278 444 c 0
 335 444 355 415 355 389 c 0
 355 356 338 338 311 338 c 0
 287 338 269 350 269 379 c 0
 269 406 287 410 287 417 c 0
 287 420 284 421 279 421 c 0
 240 421 225 368 205 281 c 0
 204 275 203 272 203 269 c 0
 203 264 206 264 213 264 c 2
 320 264 l 2
 334 264 335 264 340 279 c 0
 373 375 427 444 524 444 c 0
 587 444 610 414 610 377 c 0
 610 340 587 323 561 323 c 0
 536 323 516 337 516 365 c 0
 516 383 524 397 537 403 c 0
 548 408 553 407 553 413 c 0
 553 419 545 421 537 421 c 0
 487 421 465 368 445 281 c 0
 444 275 443 272 443 269 c 0
 443 264 446 264 453 264 c 2
 513 264 l 2
 523 264 528 259 528 249 c 0
 528 238 523 233 512 233 c 2
 447 233 l 2
 443 233 433 224 433 219 c 0
 409 135 387 73 358 12 c 0
 303 -101 256 -152 180 -152 c 0
 138 -152 108 -129 108 -90 c 0
 108 -59 126 -38 157 -38 c 0
 181 -38 198 -53 198 -77 c 0
 198 -93 193 -104 181 -112 c 0
 170 -119 166 -121 166 -125 c 0
 166 -128 168 -130 176 -130 c 0
 216 -130 234 -98 262 0 c 2
 325 219 l 2
 326 224 327 227 327 229 c 0
 327 233 325 233 319 233 c 2
 207 233 l 2
 203 233 193 224 193 219 c 0
 169 135 147 73 118 12 c 0
 63 -101 16 -152 -60 -152 c 0
 -102 -152 -135 -129 -135 -85 c 0
EndSplineSet
Ligature2: "'liga' Standard Ligatures in Latin lookup 0-1" f f
EndChar

StartChar: fff
Encoding: 29 -1 29
Width: 831
Flags: W
HStem: -152 22<-90.5 -64 -90.5 -42 152 176 392 416> 233 31<-4 60 2 59 193 299 433 539 673 732> 421 23<239.5 261.5 479.5 501.5 732 761>
VStem: -155 97<-79 -69.5> 88 90<-85 -74.5> 249 86<372.5 392.5> 328 90<-85 -74.5> 489 86<372.5 392.5> 736 94<358.5 374>
LayerCount: 2
Fore
SplineSet
-80 -152 m 0xfb80
 -122 -152 -155 -129 -155 -85 c 0
 -155 -54 -133 -30 -103 -30 c 0
 -76 -30 -58 -45 -58 -71 c 0
 -58 -87 -66 -100 -78 -108 c 0
 -93 -118 -102 -113 -102 -121 c 0
 -102 -126 -97 -130 -84 -130 c 0
 -44 -130 -26 -98 2 0 c 2
 65 219 l 2
 66 224 67 227 67 229 c 0
 67 233 65 233 59 233 c 2
 1 233 l 2
 -9 233 -14 238 -14 248 c 0
 -14 259 -9 264 2 264 c 2
 60 264 l 2
 74 264 75 264 80 279 c 0
 113 376 160 444 258 444 c 0
 315 444 335 415 335 389 c 0
 335 356 318 338 291 338 c 0
 267 338 249 350 249 379 c 0
 249 406 267 410 267 417 c 0
 267 420 264 421 259 421 c 0
 220 421 205 368 185 281 c 0
 184 275 183 272 183 269 c 0
 183 264 186 264 193 264 c 2
 300 264 l 2
 314 264 315 264 320 279 c 0xfd80
 353 376 400 444 498 444 c 0
 555 444 575 415 575 389 c 0
 575 356 558 338 531 338 c 0
 507 338 489 350 489 379 c 0
 489 406 507 410 507 417 c 0
 507 420 504 421 499 421 c 0
 460 421 445 368 425 281 c 0
 424 275 423 272 423 269 c 0
 423 264 426 264 433 264 c 2
 540 264 l 2
 554 264 555 264 560 279 c 0
 593 375 647 444 744 444 c 0
 807 444 830 414 830 377 c 0
 830 340 807 323 781 323 c 0
 756 323 736 337 736 365 c 0
 736 383 744 397 757 403 c 0
 768 408 773 407 773 413 c 0
 773 419 765 421 757 421 c 0
 707 421 685 368 665 281 c 0
 664 275 663 272 663 269 c 0
 663 264 666 264 673 264 c 2
 733 264 l 2
 743 264 748 259 748 249 c 0
 748 238 743 233 732 233 c 2
 667 233 l 2
 663 233 653 224 653 219 c 0
 629 135 607 73 578 12 c 0
 523 -101 476 -152 400 -152 c 0
 358 -152 328 -129 328 -90 c 0
 328 -59 346 -38 377 -38 c 0
 401 -38 418 -53 418 -77 c 0
 418 -93 413 -104 401 -112 c 0
 390 -119 386 -121 386 -125 c 0
 386 -128 388 -130 396 -130 c 0
 436 -130 454 -98 482 0 c 2
 545 219 l 2
 546 224 547 227 547 229 c 0
 547 233 545 233 539 233 c 2
 427 233 l 2
 423 233 413 224 413 219 c 0
 389 135 367 73 338 12 c 0
 283 -101 236 -152 160 -152 c 0
 118 -152 88 -129 88 -90 c 0
 88 -59 106 -38 137 -38 c 0
 161 -38 178 -53 178 -77 c 0
 178 -93 173 -104 161 -112 c 0
 150 -119 146 -121 146 -125 c 0
 146 -128 148 -130 156 -130 c 0
 196 -130 214 -98 242 0 c 2
 305 219 l 2
 306 224 307 227 307 229 c 0
 307 233 305 233 299 233 c 2
 187 233 l 2
 183 233 173 224 173 219 c 0
 149 135 127 73 98 12 c 0
 43 -101 -4 -152 -80 -152 c 0xfb80
EndSplineSet
Ligature2: "'liga' Standard Ligatures in Latin lookup 0-1" f f f
EndChar

StartChar: ffff
Encoding: 30 -1 30
Width: 1070
Flags: W
HStem: -152 22<-90.5 -64 -90.5 -42 152 176 392 416 632 656> 233 31<-4 60 2 59 193 299 433 539 673 779 913 972> 421 23<239.5 261.5 479.5 501.5 719.5 741.5 972 1001>
VStem: -155 97<-79 -69.5> 88 90<-85 -74.5> 249 86<372.5 392.5> 328 90<-85 -74.5> 489 86<372.5 392.5> 568 90<-85 -74.5> 729 86<372.5 392.5> 976 94<358.5 374>
LayerCount: 2
Fore
SplineSet
-80 -152 m 0xfae0
 -122 -152 -155 -129 -155 -85 c 0
 -155 -54 -133 -30 -103 -30 c 0
 -76 -30 -58 -45 -58 -71 c 0
 -58 -87 -66 -100 -78 -108 c 0
 -93 -118 -102 -113 -102 -121 c 0
 -102 -126 -97 -130 -84 -130 c 0
 -44 -130 -26 -98 2 0 c 2
 65 219 l 2
 66 224 67 227 67 229 c 0
 67 233 65 233 59 233 c 2
 1 233 l 2
 -9 233 -14 238 -14 248 c 0
 -14 259 -9 264 2 264 c 2
 60 264 l 2
 74 264 75 264 80 279 c 0
 113 376 160 444 258 444 c 0
 315 444 335 415 335 389 c 0
 335 356 318 338 291 338 c 0
 267 338 249 350 249 379 c 0
 249 406 267 410 267 417 c 0
 267 420 264 421 259 421 c 0
 220 421 205 368 185 281 c 0
 184 275 183 272 183 269 c 0
 183 264 186 264 193 264 c 2
 300 264 l 2
 314 264 315 264 320 279 c 0
 353 376 400 444 498 444 c 0
 555 444 575 415 575 389 c 0
 575 356 558 338 531 338 c 0
 507 338 489 350 489 379 c 0
 489 406 507 410 507 417 c 0
 507 420 504 421 499 421 c 0
 460 421 445 368 425 281 c 0
 424 275 423 272 423 269 c 0
 423 264 426 264 433 264 c 2
 540 264 l 2
 554 264 555 264 560 279 c 0xfd60
 593 376 640 444 738 444 c 0
 795 444 815 415 815 389 c 0
 815 356 798 338 771 338 c 0
 747 338 729 350 729 379 c 0
 729 406 747 410 747 417 c 0
 747 420 744 421 739 421 c 0
 700 421 685 368 665 281 c 0
 664 275 663 272 663 269 c 0
 663 264 666 264 673 264 c 2
 780 264 l 2
 794 264 795 264 800 279 c 0
 833 375 887 444 984 444 c 0
 1047 444 1070 414 1070 377 c 0
 1070 340 1047 323 1021 323 c 0
 996 323 976 337 976 365 c 0
 976 383 984 397 997 403 c 0
 1008 408 1013 407 1013 413 c 0
 1013 419 1005 421 997 421 c 0
 947 421 925 368 905 281 c 0
 904 275 903 272 903 269 c 0
 903 264 906 264 913 264 c 2
 973 264 l 2
 983 264 988 259 988 249 c 0
 988 238 983 233 972 233 c 2
 907 233 l 2
 903 233 893 224 893 219 c 0
 869 135 847 73 818 12 c 0
 763 -101 716 -152 640 -152 c 0
 598 -152 568 -129 568 -90 c 0
 568 -59 586 -38 617 -38 c 0
 641 -38 658 -53 658 -77 c 0
 658 -93 653 -104 641 -112 c 0
 630 -119 626 -121 626 -125 c 0
 626 -128 628 -130 636 -130 c 0
 676 -130 694 -98 722 0 c 2
 785 219 l 2
 786 224 787 227 787 229 c 0
 787 233 785 233 779 233 c 2
 667 233 l 2
 663 233 653 224 653 219 c 0
 629 135 607 73 578 12 c 0
 523 -101 476 -152 400 -152 c 0
 358 -152 328 -129 328 -90 c 0
 328 -59 346 -38 377 -38 c 0
 401 -38 418 -53 418 -77 c 0
 418 -93 413 -104 401 -112 c 0
 390 -119 386 -121 386 -125 c 0
 386 -128 388 -130 396 -130 c 0
 436 -130 454 -98 482 0 c 2
 545 219 l 2
 546 224 547 227 547 229 c 0
 547 233 545 233 539 233 c 2
 427 233 l 2
 423 233 413 224 413 219 c 0
 389 135 367 73 338 12 c 0
 283 -101 236 -152 160 -152 c 0
 118 -152 88 -129 88 -90 c 0
 88 -59 106 -38 137 -38 c 0
 161 -38 178 -53 178 -77 c 0
 178 -93 173 -104 161 -112 c 0
 150 -119 146 -121 146 -125 c 0
 146 -128 148 -130 156 -130 c 0
 196 -130 214 -98 242 0 c 2
 305 219 l 2
 306 224 307 227 307 229 c 0
 307 233 305 233 299 233 c 2
 187 233 l 2
 183 233 173 224 173 219 c 0
 149 135 127 73 98 12 c 0
 43 -101 -4 -152 -80 -152 c 0xfae0
EndSplineSet
Ligature2: "'liga' Standard Ligatures in Latin lookup 0-1" f f f f
EndChar

StartChar: fffff
Encoding: 31 -1 31
Width: 1310
Flags: W
HStem: -152 22<-90.5 -64 -90.5 -42 152 176 392 416 632 656 872 896> 233 31<-4 60 2 59 193 299 433 539 673 779 913 1019 1153 1212> 421 23<239.5 261.5 479.5 501.5 719.5 741.5 959.5 981.5 1212 1241>
VStem: -155 97<-79 -69.5> 88 90<-85 -74.5> 249 86<372.5 392.5> 328 90<-85 -74.5> 489 86<372.5 392.5> 568 90<-85 -74.5> 729 86<372.5 392.5> 808 90<-85 -74.5> 969 86<372.5 392.5> 1216 94<358.5 374>
LayerCount: 2
Fore
SplineSet
-80 -152 m 0xfab8
 -122 -152 -155 -129 -155 -85 c 0
 -155 -54 -133 -30 -103 -30 c 0
 -76 -30 -58 -45 -58 -71 c 0
 -58 -87 -66 -100 -78 -108 c 0
 -93 -118 -102 -113 -102 -121 c 0
 -102 -126 -97 -130 -84 -130 c 0
 -44 -130 -26 -98 2 0 c 2
 65 219 l 2
 66 224 67 227 67 229 c 0
 67 233 65 233 59 233 c 2
 1 233 l 2
 -9 233 -14 238 -14 248 c 0
 -14 259 -9 264 2 264 c 2
 60 264 l 2
 74 264 75 264 80 279 c 0
 113 376 160 444 258 444 c 0
 315 444 335 415 335 389 c 0
 335 356 318 338 291 338 c 0
 267 338 249 350 249 379 c 0
 249 406 267 410 267 417 c 0
 267 420 264 421 259 421 c 0
 220 421 205 368 185 281 c 0
 184 275 183 272 183 269 c 0
 183 264 186 264 193 264 c 2
 300 264 l 2
 314 264 315 264 320 279 c 0
 353 376 400 444 498 444 c 0
 555 444 575 415 575 389 c 0
 575 356 558 338 531 338 c 0
 507 338 489 350 489 379 c 0
 489 406 507 410 507 417 c 0
 507 420 504 421 499 421 c 0
 460 421 445 368 425 281 c 0
 424 275 423 272 423 269 c 0
 423 264 426 264 433 264 c 2
 540 264 l 2
 554 264 555 264 560 279 c 0
 593 376 640 444 738 444 c 0
 795 444 815 415 815 389 c 0
 815 356 798 338 771 338 c 0
 747 338 729 350 729 379 c 0
 729 406 747 410 747 417 c 0
 747 420 744 421 739 421 c 0
 700 421 685 368 665 281 c 0
 664 275 663 272 663 269 c 0
 663 264 666 264 673 264 c 2
 780 264 l 2
 794 264 795 264 800 279 c 0xfd58
 833 376 880 444 978 444 c 0
 1035 444 1055 415 1055 389 c 0
 1055 356 1038 338 1011 338 c 0
 987 338 969 350 969 379 c 0
 969 406 987 410 987 417 c 0
 987 420 984 421 979 421 c 0
 940 421 925 368 905 281 c 0
 904 275 903 272 903 269 c 0
 903 264 906 264 913 264 c 2
 1020 264 l 2
 1034 264 1035 264 1040 279 c 0
 1073 375 1127 444 1224 444 c 0
 1287 444 1310 414 1310 377 c 0
 1310 340 1287 323 1261 323 c 0
 1236 323 1216 337 1216 365 c 0
 1216 383 1224 397 1237 403 c 0
 1248 408 1253 407 1253 413 c 0
 1253 419 1245 421 1237 421 c 0
 1187 421 1165 368 1145 281 c 0
 1144 275 1143 272 1143 269 c 0
 1143 264 1146 264 1153 264 c 2
 1213 264 l 2
 1223 264 1228 259 1228 249 c 0
 1228 238 1223 233 1212 233 c 2
 1147 233 l 2
 1143 233 1133 224 1133 219 c 0
 1109 135 1087 73 1058 12 c 0
 1003 -101 956 -152 880 -152 c 0
 838 -152 808 -129 808 -90 c 0
 808 -59 826 -38 857 -38 c 0
 881 -38 898 -53 898 -77 c 0
 898 -93 893 -104 881 -112 c 0
 870 -119 866 -121 866 -125 c 0
 866 -128 868 -130 876 -130 c 0
 916 -130 934 -98 962 0 c 2
 1025 219 l 2
 1026 224 1027 227 1027 229 c 0
 1027 233 1025 233 1019 233 c 2
 907 233 l 2
 903 233 893 224 893 219 c 0
 869 135 847 73 818 12 c 0
 763 -101 716 -152 640 -152 c 0
 598 -152 568 -129 568 -90 c 0
 568 -59 586 -38 617 -38 c 0
 641 -38 658 -53 658 -77 c 0
 658 -93 653 -104 641 -112 c 0
 630 -119 626 -121 626 -125 c 0
 626 -128 628 -130 636 -130 c 0
 676 -130 694 -98 722 0 c 2
 785 219 l 2
 786 224 787 227 787 229 c 0
 787 233 785 233 779 233 c 2
 667 233 l 2
 663 233 653 224 653 219 c 0
 629 135 607 73 578 12 c 0
 523 -101 476 -152 400 -152 c 0
 358 -152 328 -129 328 -90 c 0
 328 -59 346 -38 377 -38 c 0
 401 -38 418 -53 418 -77 c 0
 418 -93 413 -104 401 -112 c 0
 390 -119 386 -121 386 -125 c 0
 386 -128 388 -130 396 -130 c 0
 436 -130 454 -98 482 0 c 2
 545 219 l 2
 546 224 547 227 547 229 c 0
 547 233 545 233 539 233 c 2
 427 233 l 2
 423 233 413 224 413 219 c 0
 389 135 367 73 338 12 c 0
 283 -101 236 -152 160 -152 c 0
 118 -152 88 -129 88 -90 c 0
 88 -59 106 -38 137 -38 c 0
 161 -38 178 -53 178 -77 c 0
 178 -93 173 -104 161 -112 c 0
 150 -119 146 -121 146 -125 c 0
 146 -128 148 -130 156 -130 c 0
 196 -130 214 -98 242 0 c 2
 305 219 l 2
 306 224 307 227 307 229 c 0
 307 233 305 233 299 233 c 2
 187 233 l 2
 183 233 173 224 173 219 c 0
 149 135 127 73 98 12 c 0
 43 -101 -4 -152 -80 -152 c 0xfab8
EndSplineSet
Ligature2: "'liga' Standard Ligatures in Latin lookup 0-1" f f f f f
EndChar

StartChar: ffffff
Encoding: 32 -1 32
Width: 1550
Flags: W
HStem: -152 22<-90.5 -64 -90.5 -42 152 176 392 416 632 656 872 896 1112 1136> 233 31<-4 60 2 59 193 299 433 539 673 779 913 1019 1153 1259 1393 1452> 421 23<239.5 261.5 479.5 501.5 719.5 741.5 959.5 981.5 1199.5 1221.5 1452 1481>
VStem: -155 97<-79 -69.5> 88 90<-85 -74.5> 249 86<372.5 392.5> 328 90<-85 -74.5> 489 86<372.5 392.5> 568 90<-85 -74.5> 729 86<372.5 392.5> 808 90<-85 -74.5> 969 86<372.5 392.5> 1048 90<-85 -74.5> 1209 86<372.5 392.5> 1456 94<358.5 374>
LayerCount: 2
Fore
SplineSet
-80 -152 m 0xfaae
 -122 -152 -155 -129 -155 -85 c 0
 -155 -54 -133 -30 -103 -30 c 0
 -76 -30 -58 -45 -58 -71 c 0
 -58 -87 -66 -100 -78 -108 c 0
 -93 -118 -102 -113 -102 -121 c 0
 -102 -126 -97 -130 -84 -130 c 0
 -44 -130 -26 -98 2 0 c 2
 65 219 l 2
 66 224 67 227 67 229 c 0
 67 233 65 233 59 233 c 2
 1 233 l 2
 -9 233 -14 238 -14 248 c 0
 -14 259 -9 264 2 264 c 2
 60 264 l 2
 74 264 75 264 80 279 c 0
 113 376 160 444 258 444 c 0
 315 444 335 415 335 389 c 0
 335 356 318 338 291 338 c 0
 267 338 249 350 249 379 c 0
 249 406 267 410 267 417 c 0
 267 420 264 421 259 421 c 0
 220 421 205 368 185 281 c 0
 184 275 183 272 183 269 c 0
 183 264 186 264 193 264 c 2
 300 264 l 2
 314 264 315 264 320 279 c 0
 353 376 400 444 498 444 c 0
 555 444 575 415 575 389 c 0
 575 356 558 338 531 338 c 0
 507 338 489 350 489 379 c 0
 489 406 507 410 507 417 c 0
 507 420 504 421 499 421 c 0
 460 421 445 368 425 281 c 0
 424 275 423 272 423 269 c 0
 423 264 426 264 433 264 c 2
 540 264 l 2
 554 264 555 264 560 279 c 0
 593 376 640 444 738 444 c 0
 795 444 815 415 815 389 c 0
 815 356 798 338 771 338 c 0
 747 338 729 350 729 379 c 0
 729 406 747 410 747 417 c 0
 747 420 744 421 739 421 c 0
 700 421 685 368 665 281 c 0
 664 275 663 272 663 269 c 0
 663 264 666 264 673 264 c 2
 780 264 l 2
 794 264 795 264 800 279 c 0
 833 376 880 444 978 444 c 0
 1035 444 1055 415 1055 389 c 0
 1055 356 1038 338 1011 338 c 0
 987 338 969 350 969 379 c 0
 969 406 987 410 987 417 c 0
 987 420 984 421 979 421 c 0
 940 421 925 368 905 281 c 0
 904 275 903 272 903 269 c 0
 903 264 906 264 913 264 c 2
 1020 264 l 2
 1034 264 1035 264 1040 279 c 0xfd56
 1073 376 1120 444 1218 444 c 0
 1275 444 1295 415 1295 389 c 0
 1295 356 1278 338 1251 338 c 0
 1227 338 1209 350 1209 379 c 0
 1209 406 1227 410 1227 417 c 0
 1227 420 1224 421 1219 421 c 0
 1180 421 1165 368 1145 281 c 0
 1144 275 1143 272 1143 269 c 0
 1143 264 1146 264 1153 264 c 2
 1260 264 l 2
 1274 264 1275 264 1280 279 c 0
 1313 375 1367 444 1464 444 c 0
 1527 444 1550 414 1550 377 c 0
 1550 340 1527 323 1501 323 c 0
 1476 323 1456 337 1456 365 c 0
 1456 383 1464 397 1477 403 c 0
 1488 408 1493 407 1493 413 c 0
 1493 419 1485 421 1477 421 c 0
 1427 421 1405 368 1385 281 c 0
 1384 275 1383 272 1383 269 c 0
 1383 264 1386 264 1393 264 c 2
 1453 264 l 2
 1463 264 1468 259 1468 249 c 0
 1468 238 1463 233 1452 233 c 2
 1387 233 l 2
 1383 233 1373 224 1373 219 c 0
 1349 135 1327 73 1298 12 c 0
 1243 -101 1196 -152 1120 -152 c 0
 1078 -152 1048 -129 1048 -90 c 0
 1048 -59 1066 -38 1097 -38 c 0
 1121 -38 1138 -53 1138 -77 c 0
 1138 -93 1133 -104 1121 -112 c 0
 1110 -119 1106 -121 1106 -125 c 0
 1106 -128 1108 -130 1116 -130 c 0
 1156 -130 1174 -98 1202 0 c 2
 1265 219 l 2
 1266 224 1267 227 1267 229 c 0
 1267 233 1265 233 1259 233 c 2
 1147 233 l 2
 1143 233 1133 224 1133 219 c 0
 1109 135 1087 73 1058 12 c 0
 1003 -101 956 -152 880 -152 c 0
 838 -152 808 -129 808 -90 c 0
 808 -59 826 -38 857 -38 c 0
 881 -38 898 -53 898 -77 c 0
 898 -93 893 -104 881 -112 c 0
 870 -119 866 -121 866 -125 c 0
 866 -128 868 -130 876 -130 c 0
 916 -130 934 -98 962 0 c 2
 1025 219 l 2
 1026 224 1027 227 1027 229 c 0
 1027 233 1025 233 1019 233 c 2
 907 233 l 2
 903 233 893 224 893 219 c 0
 869 135 847 73 818 12 c 0
 763 -101 716 -152 640 -152 c 0
 598 -152 568 -129 568 -90 c 0
 568 -59 586 -38 617 -38 c 0
 641 -38 658 -53 658 -77 c 0
 658 -93 653 -104 641 -112 c 0
 630 -119 626 -121 626 -125 c 0
 626 -128 628 -130 636 -130 c 0
 676 -130 694 -98 722 0 c 2
 785 219 l 2
 786 224 787 227 787 229 c 0
 787 233 785 233 779 233 c 2
 667 233 l 2
 663 233 653 224 653 219 c 0
 629 135 607 73 578 12 c 0
 523 -101 476 -152 400 -152 c 0
 358 -152 328 -129 328 -90 c 0
 328 -59 346 -38 377 -38 c 0
 401 -38 418 -53 418 -77 c 0
 418 -93 413 -104 401 -112 c 0
 390 -119 386 -121 386 -125 c 0
 386 -128 388 -130 396 -130 c 0
 436 -130 454 -98 482 0 c 2
 545 219 l 2
 546 224 547 227 547 229 c 0
 547 233 545 233 539 233 c 2
 427 233 l 2
 423 233 413 224 413 219 c 0
 389 135 367 73 338 12 c 0
 283 -101 236 -152 160 -152 c 0
 118 -152 88 -129 88 -90 c 0
 88 -59 106 -38 137 -38 c 0
 161 -38 178 -53 178 -77 c 0
 178 -93 173 -104 161 -112 c 0
 150 -119 146 -121 146 -125 c 0
 146 -128 148 -130 156 -130 c 0
 196 -130 214 -98 242 0 c 2
 305 219 l 2
 306 224 307 227 307 229 c 0
 307 233 305 233 299 233 c 2
 187 233 l 2
 183 233 173 224 173 219 c 0
 149 135 127 73 98 12 c 0
 43 -101 -4 -152 -80 -152 c 0xfaae
EndSplineSet
Ligature2: "'liga' Standard Ligatures in Latin lookup 0-1" f f f f f f
EndChar

StartChar: fp
Encoding: 33 -1 33
Width: 619
Flags: W
HStem: -134 26 1 33 238 39 243 37
VStem: 164 477 552 89
LayerCount: 2
Fore
SplineSet
164 -130 m 0xd8
 164 -121 168 -117 177 -117 c 2
 208 -117 l 2
 218 -117 220 -115 223 -107 c 2
 346 198 l 2
 349 205 352 215 352 223 c 0
 352 230 349 235 341 235 c 0
 323 235 303 209 274 159 c 0
 269 150 265 144 258 144 c 0
 252 144 247 148 247 155 c 0
 247 160 249 165 254 174 c 0
 285 231 317 273 376 273 c 0
 402 273 417 264 424 252 c 0
 433 235 430 228 435 228 c 0
 439 228 442 236 456 248 c 0
 474 264 496 274 527 274 c 0
 583 274 619 243 619 185 c 0
 619 90 541 -10 445 -10 c 0
 428 -10 415 -8 401 -1 c 0
 385 7 382 17 377 17 c 0
 372 17 370 10 368 5 c 2
 323 -107 l 2
 322 -110 321 -113 321 -114 c 0
 321 -117 324 -117 330 -117 c 2
 370 -117 l 2
 378 -117 382 -121 382 -129 c 0
 382 -138 378 -142 369 -142 c 2
 176 -142 l 2
 168 -142 164 -138 164 -130 c 0xd8
-141 -85 m 0
 -141 -54 -119 -30 -89 -30 c 0
 -62 -30 -44 -45 -44 -71 c 0
 -44 -87 -52 -100 -64 -108 c 0
 -79 -118 -88 -113 -88 -121 c 0
 -88 -126 -83 -130 -70 -130 c 0
 -30 -130 -12 -98 16 0 c 2
 79 219 l 2
 80 224 81 227 81 229 c 0
 81 233 79 233 73 233 c 2
 15 233 l 2
 5 233 0 238 0 248 c 0
 0 259 5 264 16 264 c 2
 74 264 l 2
 88 264 89 264 94 279 c 0
 127 375 181 444 278 444 c 0
 341 444 364 414 364 377 c 0
 364 340 341 323 315 323 c 0
 290 323 270 337 270 365 c 0
 270 383 278 397 291 403 c 0
 302 408 307 407 307 413 c 0
 307 419 299 421 291 421 c 0
 241 421 219 368 199 281 c 0
 198 275 197 272 197 269 c 0
 197 264 200 264 207 264 c 2
 267 264 l 2
 277 264 282 259 282 249 c 0xe4
 282 238 277 233 266 233 c 2
 201 233 l 2
 197 233 187 224 187 219 c 0
 163 135 141 73 112 12 c 0
 57 -101 10 -152 -66 -152 c 0
 -108 -152 -141 -129 -141 -85 c 0
397 56 m 0
 397 35 405 24 422 24 c 0
 470 24 523 151 523 200 c 0
 523 222 517 237 500 237 c 0
 476 237 450 208 436 174 c 2
 416 125 l 2
 405 97 397 77 397 56 c 0
EndSplineSet
Ligature2: "'liga' Standard Ligatures in Latin lookup 0-1" f p
EndChar

StartChar: fz
Encoding: 34 -1 34
Width: 497
Flags: W
HStem: -152 22<-76.5 -50 -76.5 -28> -10 41<397 405> -1 21G<232 240.5> 21 45<276 353.5> 50 65<414 422> 203 54<355.5 426> 233 31<10 74 16 73 207 266> 421 23<266 295>
VStem: -141 97<-79 -69.5> 270 94<358.5 374> 390 69<70.5 86.5 50.5 90.5>
LayerCount: 2
Fore
SplineSet
-141 -85 m 0xa3a0
 -141 -54 -119 -30 -89 -30 c 0
 -62 -30 -44 -45 -44 -71 c 0
 -44 -87 -52 -100 -64 -108 c 0
 -79 -118 -88 -113 -88 -121 c 0
 -88 -126 -83 -130 -70 -130 c 0
 -30 -130 -12 -98 16 0 c 2
 79 219 l 2
 80 224 81 227 81 229 c 0
 81 233 79 233 73 233 c 2
 15 233 l 2
 5 233 0 238 0 248 c 0
 0 259 5 264 16 264 c 2
 74 264 l 2
 88 264 89 264 94 279 c 0
 127 375 181 444 278 444 c 0
 341 444 364 414 364 377 c 0
 364 340 341 323 315 323 c 0
 290 323 270 337 270 365 c 0
 270 383 278 397 291 403 c 0
 302 408 307 407 307 413 c 0
 307 419 299 421 291 421 c 0xa3e0
 241 421 219 368 199 281 c 0
 198 275 197 272 197 269 c 0
 197 264 200 264 207 264 c 2
 267 264 l 2
 277 264 282 259 282 249 c 0
 282 238 277 233 266 233 c 2
 201 233 l 2
 197 233 187 224 187 219 c 0
 163 135 141 73 112 12 c 0
 57 -101 10 -152 -66 -152 c 0
 -108 -152 -141 -129 -141 -85 c 0xa3a0
236 -1 m 0
 228 -1 223 4 223 11 c 0
 223 19 227 23 235 31 c 2xa3a0
 389 187 l 2
 390 188 412 210 408 210 c 0
 402 210 388 203 370 203 c 0
 341 203 324 206 320 206 c 0
 314 206 312 200 309 194 c 2
 299 173 l 2
 295 164 291 158 284 158 c 0
 278 158 273 161 273 168 c 0
 273 172 274 177 276 183 c 2
 300 253 l 2
 303 262 308 266 318 266 c 0
 330 266 359 257 419 257 c 0
 433 257 449 259 460 262 c 0
 471 265 476 268 484 268 c 0
 491 268 497 264 497 257 c 0
 497 249 492 243 484 235 c 2
 324 77 l 2
 319 72 312 60 312 60 c 1
 315 60 321 66 334 66 c 0x95a0
 373 66 382 31 412 31 c 0xc3a0
 421 31 428 35 432 42 c 0
 434 46 436 50 436 52 c 0
 436 54 435 55 433 55 c 0
 430 55 427 50 417 50 c 0
 403 50 390 61 390 80 c 0
 390 101 405 115 423 115 c 0xaba0
 441 115 459 102 459 71 c 0
 459 30 433 -10 377 -10 c 0xc3a0
 328 -10 308 21 280 21 c 0x93a0
 272 21 264 17 256 11 c 0
 251 7 245 -1 236 -1 c 0
EndSplineSet
Ligature2: "'liga' Standard Ligatures in Latin lookup 0-1" f z
EndChar

StartChar: sf
Encoding: 35 -1 35
Width: 604
Flags: W
HStem: 0 31 250 35
VStem: 0 68 37 49 142 59
LayerCount: 2
Fore
SplineSet
99 -85 m 0xd8
 99 -54 121 -30 151 -30 c 0
 178 -30 196 -45 196 -71 c 0
 196 -87 188 -100 176 -108 c 0
 161 -118 152 -113 152 -121 c 0
 152 -126 157 -130 170 -130 c 0
 210 -130 228 -98 256 0 c 2
 319 219 l 2
 320 224 321 227 321 229 c 0
 321 233 319 233 313 233 c 2
 255 233 l 2
 245 233 240 238 240 248 c 0
 240 259 245 264 256 264 c 2
 314 264 l 2
 328 264 329 264 334 279 c 0
 367 375 421 444 518 444 c 0
 581 444 604 414 604 377 c 0
 604 340 581 323 555 323 c 0
 530 323 510 337 510 365 c 0
 510 383 518 397 531 403 c 0
 542 408 547 407 547 413 c 0
 547 419 539 421 531 421 c 0
 481 421 459 368 439 281 c 0
 438 275 437 272 437 269 c 0
 437 264 440 264 447 264 c 2
 507 264 l 2
 517 264 522 259 522 249 c 0
 522 238 517 233 506 233 c 2
 441 233 l 2
 437 233 427 224 427 219 c 0
 403 135 381 73 352 12 c 0
 297 -101 250 -152 174 -152 c 0
 132 -152 99 -129 99 -85 c 0xd8
87 -10 m 0
 34 -10 0 21 0 54 c 0xe8
 0 81 17 101 41 101 c 0
 60 101 77 88 77 68 c 0
 77 55 72 45 63 39 c 0
 52 32 46 34 46 29 c 0
 46 22 63 14 88 14 c 0
 120 14 139 37 139 59 c 0
 139 79 130 92 101 112 c 0
 66 136 47 155 47 190 c 0
 47 243 88 273 147 273 c 0
 198 273 229 250 229 213 c 0
 229 194 216 175 192 175 c 0
 172 175 157 187 157 207 c 0
 157 218 161 226 167 231 c 0
 174 236 179 236 179 240 c 0
 179 247 165 251 148 251 c 0
 117 251 105 234 105 218 c 0
 105 199 117 188 153 161 c 0
 192 132 202 111 202 83 c 0
 202 25 152 -10 87 -10 c 0
EndSplineSet
Ligature2: "'liga' Standard Ligatures in Latin lookup 0-1" s f
EndChar

StartChar: sfp
Encoding: 36 -1 36
Width: 846
Flags: W
HStem: -134 26 0 31 1 33 238 39 243 37 250 35
VStem: 0 68 37 49 142 59 390 477 778 89
LayerCount: 2
Fore
SplineSet
390 -130 m 0xc9c0
 390 -121 394 -117 403 -117 c 2
 434 -117 l 2
 444 -117 446 -115 449 -107 c 2
 572 198 l 2
 575 205 578 215 578 223 c 0
 578 230 575 235 567 235 c 0
 549 235 529 209 500 159 c 0
 495 150 491 144 484 144 c 0
 478 144 473 148 473 155 c 0
 473 160 475 165 480 174 c 0
 511 231 543 273 602 273 c 0
 628 273 643 264 650 252 c 0
 659 235 656 228 661 228 c 0
 665 228 668 236 682 248 c 0
 700 264 722 274 753 274 c 0
 809 274 845 243 845 185 c 0
 845 90 767 -10 671 -10 c 0
 654 -10 641 -8 627 -1 c 0
 611 7 608 17 603 17 c 0
 598 17 596 10 594 5 c 2
 549 -107 l 2
 548 -110 547 -113 547 -114 c 0
 547 -117 550 -117 556 -117 c 2
 596 -117 l 2
 604 -117 608 -121 608 -129 c 0
 608 -138 604 -142 595 -142 c 2
 402 -142 l 2
 394 -142 390 -138 390 -130 c 0xc9c0
89 -85 m 0
 89 -54 111 -30 141 -30 c 0
 168 -30 186 -45 186 -71 c 0
 186 -87 178 -100 166 -108 c 0
 151 -118 142 -113 142 -121 c 0
 142 -126 147 -130 160 -130 c 0
 200 -130 218 -98 246 0 c 2
 309 219 l 2
 310 224 311 227 311 229 c 0
 311 233 309 233 303 233 c 2
 245 233 l 2
 235 233 230 238 230 248 c 0
 230 259 235 264 246 264 c 2
 304 264 l 2
 318 264 319 264 324 279 c 0
 357 375 411 444 508 444 c 0
 571 444 594 414 594 377 c 0
 594 340 571 323 545 323 c 0
 520 323 500 337 500 365 c 0
 500 383 508 397 521 403 c 0
 532 408 537 407 537 413 c 0
 537 419 529 421 521 421 c 0
 471 421 449 368 429 281 c 0
 428 275 427 272 427 269 c 0
 427 264 430 264 437 264 c 2
 497 264 l 2
 507 264 512 259 512 249 c 0xd1a0
 512 238 507 233 496 233 c 2
 431 233 l 2
 427 233 417 224 417 219 c 0
 393 135 371 73 342 12 c 0
 287 -101 240 -152 164 -152 c 0
 122 -152 89 -129 89 -85 c 0
0 54 m 0xc6a0
 0 81 17 101 41 101 c 0
 60 101 77 88 77 68 c 0
 77 55 72 45 63 39 c 0
 52 32 46 34 46 29 c 0
 46 22 63 14 88 14 c 0
 120 14 139 37 139 59 c 0
 139 79 130 92 101 112 c 0
 66 136 47 155 47 190 c 0xa9a0
 47 243 88 273 147 273 c 0
 198 273 229 250 229 213 c 0
 229 194 216 175 192 175 c 0
 172 175 157 187 157 207 c 0
 157 218 161 226 167 231 c 0
 174 236 179 236 179 240 c 0
 179 247 165 251 148 251 c 0
 117 251 105 234 105 218 c 0
 105 199 117 188 153 161 c 0
 192 132 202 111 202 83 c 0
 202 25 152 -10 87 -10 c 0
 34 -10 0 21 0 54 c 0xc6a0
623 56 m 0
 623 35 631 24 648 24 c 0
 696 24 749 151 749 200 c 0
 749 222 743 237 726 237 c 0
 702 237 676 208 662 174 c 2
 642 125 l 2
 631 97 623 77 623 56 c 0
EndSplineSet
Ligature2: "'liga' Standard Ligatures in Latin lookup 0-1" s f p
EndChar

StartChar: sfpp
Encoding: 37 -1 37
Width: 1198
Flags: W
HStem: -152 22<164.5 191 164.5 213> -142 25<397 433 402 433 433 438 555 594 757 788 788 793 910 949> -10 24<75.5 104 75.5 119.5> -10 34<661.5 671 638.5 718 1016.5 1026> 233 31<251 315 257 314 448 491> 237 37<713 780> 251 22<132.5 156.5> 421 23<507 536>
VStem: 0 77<61.5 67.5> 47 58<208.5 216.5> 100 97<-79 -69.5> 139 63<54 69> 157 72<203.5 212.5> 511 94<358.5 374> 748 96<175.5 211> 852 27<199 199 199 199.5> 1103 96<175.5 211>
LayerCount: 2
Fore
SplineSet
401 -142 m 2x655780
 393 -142 389 -138 389 -130 c 0xa95780
 389 -121 393 -117 402 -117 c 2
 433 -117 l 2
 443 -117 445 -115 448 -107 c 2
 571 198 l 2
 574 205 577 215 577 223 c 0
 577 230 574 235 566 235 c 0
 548 235 528 209 499 159 c 0
 494 150 490 144 483 144 c 0
 477 144 472 148 472 155 c 0
 472 160 474 165 479 174 c 0
 510 231 542 273 601 273 c 0x635780
 627 273 642 264 649 252 c 0
 658 235 655 228 660 228 c 0
 664 228 667 236 681 248 c 0x695780
 699 264 721 274 752 274 c 0
 808 274 844 243 844 185 c 0
 844 90 766 -10 670 -10 c 0
 653 -10 640 -8 626 -1 c 0
 610 7 607 17 602 17 c 0
 597 17 595 10 593 5 c 2
 548 -107 l 2
 547 -110 546 -113 546 -114 c 0
 546 -117 549 -117 555 -117 c 2
 595 -117 l 2
 603 -117 607 -121 607 -129 c 0
 607 -138 603 -142 594 -142 c 2
 401 -142 l 2x655780
744 -130 m 0xa95780
 744 -121 748 -117 757 -117 c 2
 788 -117 l 2
 798 -117 800 -115 803 -107 c 2
 926 198 l 2
 929 205 932 215 932 223 c 0
 932 230 929 235 921 235 c 0
 906 235 893 218 883 205 c 0
 880 200 879 199 879 199 c 2
 874 192 870 187 863 187 c 0
 857 187 852 190 852 197 c 0
 852 202 854 207 860 216 c 0
 882 247 908 273 956 273 c 0x635780
 982 273 997 264 1004 252 c 0
 1013 235 1010 228 1015 228 c 0
 1019 228 1022 236 1036 248 c 0x695780
 1054 264 1076 274 1107 274 c 0
 1163 274 1199 243 1199 185 c 0
 1199 90 1121 -10 1025 -10 c 0
 1008 -10 995 -8 981 -1 c 0
 965 7 962 17 957 17 c 0
 952 17 950 10 948 5 c 2
 903 -107 l 2
 902 -110 901 -113 901 -114 c 0
 901 -117 904 -117 910 -117 c 2
 950 -117 l 2
 958 -117 962 -121 962 -129 c 0
 962 -138 958 -142 949 -142 c 2
 756 -142 l 2x655780
 748 -142 744 -138 744 -130 c 0xa95780
100 -85 m 0
 100 -54 122 -30 152 -30 c 0
 179 -30 197 -45 197 -71 c 0x69a780
 197 -87 189 -100 177 -108 c 0
 162 -118 153 -113 153 -121 c 0
 153 -126 158 -130 171 -130 c 0xa94f80
 211 -130 229 -98 257 0 c 2
 320 219 l 2
 321 224 322 227 322 229 c 0
 322 233 320 233 314 233 c 2
 256 233 l 2
 246 233 241 238 241 248 c 0
 241 259 246 264 257 264 c 2
 315 264 l 2
 329 264 330 264 335 279 c 0
 368 375 422 444 521 444 c 0
 582 444 605 414 605 377 c 0
 605 340 582 323 556 323 c 0
 531 323 511 337 511 365 c 0
 511 383 519 397 532 403 c 0
 543 408 548 407 548 413 c 0
 548 419 540 421 532 421 c 0
 482 421 460 368 440 281 c 0
 439 275 438 272 438 269 c 0
 438 264 441 264 448 264 c 2
 492 264 l 2
 502 264 507 259 507 249 c 0
 507 238 502 233 491 233 c 2
 442 233 l 2
 438 233 428 224 428 219 c 0
 404 135 382 73 353 12 c 0
 298 -101 251 -152 175 -152 c 0
 133 -152 100 -129 100 -85 c 0
87 -10 m 0
 34 -10 0 21 0 54 c 0
 0 81 17 101 41 101 c 0
 60 101 77 88 77 68 c 0
 77 55 72 45 63 39 c 0
 52 32 46 34 46 29 c 0
 46 22 63 14 88 14 c 0
 120 14 139 37 139 59 c 0x659780
 139 79 130 92 101 112 c 0
 66 136 47 155 47 190 c 0
 47 243 88 273 147 273 c 0
 198 273 229 250 229 213 c 0
 229 194 216 175 192 175 c 0
 172 175 157 187 157 207 c 0x634f80
 157 218 161 226 167 231 c 0
 174 236 179 236 179 240 c 0
 179 247 165 251 148 251 c 0
 117 251 105 234 105 218 c 0
 105 199 117 188 153 161 c 0
 192 132 202 111 202 83 c 0x635780
 202 25 152 -10 87 -10 c 0
977 56 m 0
 977 35 985 24 1002 24 c 0x555780
 1050 24 1103 151 1103 200 c 0
 1103 222 1097 237 1080 237 c 0
 1056 237 1030 208 1016 174 c 2
 996 125 l 2
 985 97 977 77 977 56 c 0
622 56 m 0
 622 35 630 24 647 24 c 0
 695 24 748 151 748 200 c 0
 748 222 742 237 725 237 c 0
 701 237 675 208 661 174 c 2
 641 125 l 2
 630 97 622 77 622 56 c 0
EndSplineSet
Ligature2: "'liga' Standard Ligatures in Latin lookup 0-1" s f p p
EndChar

StartChar: sfz
Encoding: 38 -1 38
Width: 732
Flags: W
HStem: 0 31 250 35
VStem: 0 68 37 49 142 59
LayerCount: 2
Fore
SplineSet
94 -85 m 0xd8
 94 -54 116 -30 146 -30 c 0
 173 -30 191 -45 191 -71 c 0
 191 -87 183 -100 171 -108 c 0
 156 -118 147 -113 147 -121 c 0
 147 -126 152 -130 165 -130 c 0
 205 -130 223 -98 251 0 c 2
 314 219 l 2
 315 224 316 227 316 229 c 0
 316 233 314 233 308 233 c 2
 250 233 l 2
 240 233 235 238 235 248 c 0
 235 259 240 264 251 264 c 2
 309 264 l 2
 323 264 324 264 329 279 c 0
 362 375 416 444 513 444 c 0
 576 444 599 414 599 377 c 0
 599 340 576 323 550 323 c 0
 525 323 505 337 505 365 c 0
 505 383 513 397 526 403 c 0
 537 408 542 407 542 413 c 0
 542 419 534 421 526 421 c 0
 476 421 454 368 434 281 c 0
 433 275 432 272 432 269 c 0
 432 264 435 264 442 264 c 2
 502 264 l 2
 512 264 517 259 517 249 c 0
 517 238 512 233 501 233 c 2
 436 233 l 2
 432 233 422 224 422 219 c 0
 398 135 376 73 347 12 c 0
 292 -101 245 -152 169 -152 c 0
 127 -152 94 -129 94 -85 c 0xd8
87 -10 m 0
 34 -10 0 21 0 54 c 0xe8
 0 81 17 101 41 101 c 0
 60 101 77 88 77 68 c 0
 77 55 72 45 63 39 c 0
 52 32 46 34 46 29 c 0
 46 22 63 14 88 14 c 0
 120 14 139 37 139 59 c 0
 139 79 130 92 101 112 c 0
 66 136 47 155 47 190 c 0
 47 243 88 273 147 273 c 0
 198 273 229 250 229 213 c 0
 229 194 216 175 192 175 c 0
 172 175 157 187 157 207 c 0
 157 218 161 226 167 231 c 0
 174 236 179 236 179 240 c 0
 179 247 165 251 148 251 c 0
 117 251 105 234 105 218 c 0
 105 199 117 188 153 161 c 0
 192 132 202 111 202 83 c 0
 202 25 152 -10 87 -10 c 0
472 -1 m 0
 464 -1 459 4 459 11 c 0
 459 19 463 23 471 31 c 2
 625 187 l 2
 626 188 648 210 644 210 c 0
 638 210 624 203 606 203 c 0
 577 203 560 206 556 206 c 0
 550 206 548 200 545 194 c 2
 535 173 l 2
 531 164 527 158 520 158 c 0
 514 158 509 161 509 168 c 0
 509 172 510 177 512 183 c 2
 536 253 l 2
 539 262 544 266 554 266 c 0
 566 266 595 257 655 257 c 0
 669 257 685 259 696 262 c 0
 707 265 712 268 720 268 c 0
 727 268 733 264 733 257 c 0
 733 249 728 243 720 235 c 2
 560 77 l 2
 555 72 548 60 548 60 c 1
 551 60 557 66 570 66 c 0
 609 66 618 31 648 31 c 0
 657 31 664 35 668 42 c 0
 670 46 672 50 672 52 c 0
 672 54 671 55 669 55 c 0
 666 55 663 50 653 50 c 0
 639 50 626 61 626 80 c 0
 626 101 641 115 659 115 c 0
 677 115 695 102 695 71 c 0
 695 30 669 -10 613 -10 c 0
 564 -10 544 21 516 21 c 0
 508 21 500 17 492 11 c 0
 487 7 481 -1 472 -1 c 0
EndSplineSet
Ligature2: "'liga' Standard Ligatures in Latin lookup 0-1" s f z
EndChar

StartChar: sfzp
Encoding: 39 -1 39
Width: 1075
Flags: W
HStem: -134 26 0 31 1 33 238 39 243 37 250 35
VStem: 0 68 37 49 142 59 621 477 1009 89
LayerCount: 2
Fore
SplineSet
633 -142 m 2xc9a0
 625 -142 621 -138 621 -130 c 0xd1c0
 621 -121 625 -117 634 -117 c 2
 665 -117 l 2
 675 -117 677 -115 680 -107 c 2
 803 198 l 2
 806 205 809 215 809 223 c 0
 809 230 806 235 798 235 c 0
 780 235 760 209 731 159 c 0
 726 150 722 144 715 144 c 0
 709 144 704 148 704 155 c 0
 704 160 706 165 711 174 c 0
 742 231 774 273 833 273 c 0
 859 273 874 264 881 252 c 0
 890 235 887 228 892 228 c 0
 896 228 899 236 913 248 c 0
 931 264 953 274 984 274 c 0
 1040 274 1076 243 1076 185 c 0
 1076 90 998 -10 902 -10 c 0
 885 -10 872 -8 858 -1 c 0
 842 7 839 17 834 17 c 0
 829 17 827 10 825 5 c 2
 780 -107 l 2
 779 -110 778 -113 778 -114 c 0
 778 -117 781 -117 787 -117 c 2
 827 -117 l 2
 835 -117 839 -121 839 -129 c 0
 839 -138 835 -142 826 -142 c 2
 633 -142 l 2xc9a0
99 -85 m 0
 99 -54 121 -30 151 -30 c 0
 178 -30 196 -45 196 -71 c 0
 196 -87 188 -100 176 -108 c 0
 161 -118 152 -113 152 -121 c 0
 152 -126 157 -130 170 -130 c 0
 210 -130 228 -98 256 0 c 2
 319 219 l 2
 320 224 321 227 321 229 c 0
 321 233 319 233 313 233 c 2
 255 233 l 2
 245 233 240 238 240 248 c 0
 240 259 245 264 256 264 c 2
 314 264 l 2
 328 264 329 264 334 279 c 0
 367 375 421 444 518 444 c 0
 581 444 604 414 604 377 c 0
 604 340 581 323 555 323 c 0
 530 323 510 337 510 365 c 0
 510 383 518 397 531 403 c 0
 542 408 547 407 547 413 c 0
 547 419 539 421 531 421 c 0
 481 421 459 368 439 281 c 0
 438 275 437 272 437 269 c 0
 437 264 440 264 447 264 c 2
 507 264 l 2
 517 264 522 259 522 249 c 0
 522 238 517 233 506 233 c 2
 441 233 l 2
 437 233 427 224 427 219 c 0
 403 135 381 73 352 12 c 0
 297 -101 250 -152 174 -152 c 0
 132 -152 99 -129 99 -85 c 0
87 -10 m 0
 34 -10 0 21 0 54 c 0xcaa0
 0 81 17 101 41 101 c 0
 60 101 77 88 77 68 c 0
 77 55 72 45 63 39 c 0
 52 32 46 34 46 29 c 0
 46 22 63 14 88 14 c 0
 120 14 139 37 139 59 c 0
 139 79 130 92 101 112 c 0
 66 136 47 155 47 190 c 0xa9a0
 47 243 88 273 147 273 c 0xc5a0
 198 273 229 250 229 213 c 0
 229 194 216 175 192 175 c 0
 172 175 157 187 157 207 c 0
 157 218 161 226 167 231 c 0
 174 236 179 236 179 240 c 0
 179 247 165 251 148 251 c 0
 117 251 105 234 105 218 c 0
 105 199 117 188 153 161 c 0
 192 132 202 111 202 83 c 0
 202 25 152 -10 87 -10 c 0
465 11 m 0
 465 19 469 23 477 31 c 2
 631 187 l 2
 632 188 654 210 650 210 c 0
 644 210 630 203 612 203 c 0
 583 203 566 206 562 206 c 0
 556 206 554 200 551 194 c 2
 541 173 l 2
 537 164 533 158 526 158 c 0
 520 158 515 161 515 168 c 0
 515 172 516 177 518 183 c 2
 542 253 l 2
 545 262 550 266 560 266 c 0
 572 266 601 257 661 257 c 0
 675 257 691 259 702 262 c 0
 713 265 718 268 726 268 c 0
 733 268 739 264 739 257 c 0
 739 249 734 243 726 235 c 2
 566 77 l 2
 561 72 554 60 554 60 c 1
 557 60 563 66 576 66 c 0
 615 66 624 31 654 31 c 0
 663 31 670 35 674 42 c 0
 676 46 678 50 678 52 c 0
 678 54 677 55 675 55 c 0
 672 55 669 50 659 50 c 0
 645 50 632 61 632 80 c 0
 632 101 647 115 665 115 c 0
 683 115 701 102 701 71 c 0
 701 30 675 -10 619 -10 c 0
 570 -10 550 21 522 21 c 0
 514 21 506 17 498 11 c 0
 493 7 487 -1 478 -1 c 0
 470 -1 465 4 465 11 c 0
873 125 m 2
 862 97 854 77 854 56 c 0
 854 35 862 24 879 24 c 0
 927 24 980 151 980 200 c 0
 980 222 974 237 957 237 c 0
 933 237 907 208 893 174 c 2
 873 125 l 2
EndSplineSet
Ligature2: "'liga' Standard Ligatures in Latin lookup 0-1" s f z p
EndChar

StartChar: sffz
Encoding: 40 -1 40
Width: 964
Flags: W
HStem: -152 22<164.5 191 164.5 213 407 431> -10 24<75.5 104 75.5 119.5> -10 41<864 872> -1 21G<699 707.5> 21 45<743 820.5> 50 65<881 889> 203 54<822.5 893> 233 31<251 315 257 314 448 554 688 731> 251 22<132.5 156.5> 421 23<494.5 516.5 747 776>
VStem: 0 77<61.5 67.5> 47 58<208.5 216.5> 100 97<-79 -69.5> 139 63<54 69> 157 72<203.5 212.5> 343 90<-85 -74.5> 504 86<372.5 392.5> 751 94<358.5 374> 857 69<70.5 86.5 50.5 90.5>
LayerCount: 2
Fore
SplineSet
175 -152 m 0x9149e0
 133 -152 100 -129 100 -85 c 0
 100 -54 122 -30 152 -30 c 0
 179 -30 197 -45 197 -71 c 0
 197 -87 189 -100 177 -108 c 0
 162 -118 153 -113 153 -121 c 0
 153 -126 158 -130 171 -130 c 0
 211 -130 229 -98 257 0 c 2
 320 219 l 2
 321 224 322 227 322 229 c 0
 322 233 320 233 314 233 c 2
 256 233 l 2
 246 233 241 238 241 248 c 0
 241 259 246 264 257 264 c 2
 315 264 l 2
 329 264 330 264 335 279 c 0
 368 376 415 444 513 444 c 0
 570 444 590 415 590 389 c 0
 590 356 573 338 546 338 c 0
 522 338 504 350 504 379 c 0
 504 406 522 410 522 417 c 0
 522 420 519 421 514 421 c 0
 475 421 460 368 440 281 c 0
 439 275 438 272 438 269 c 0
 438 264 441 264 448 264 c 2
 555 264 l 2
 569 264 570 264 575 279 c 0
 608 375 662 444 761 444 c 0
 822 444 845 414 845 377 c 0
 845 340 822 323 796 323 c 0
 771 323 751 337 751 365 c 0
 751 383 759 397 772 403 c 0
 783 408 788 407 788 413 c 0
 788 419 780 421 772 421 c 0
 722 421 700 368 680 281 c 0
 679 275 678 272 678 269 c 0
 678 264 681 264 688 264 c 2
 732 264 l 2
 742 264 747 259 747 249 c 0
 747 238 742 233 731 233 c 2
 682 233 l 2
 678 233 668 224 668 219 c 0
 644 135 622 73 593 12 c 0
 538 -101 491 -152 415 -152 c 0
 373 -152 343 -129 343 -90 c 0
 343 -59 361 -38 392 -38 c 0
 416 -38 433 -53 433 -77 c 0
 433 -93 428 -104 416 -112 c 0
 405 -119 401 -121 401 -125 c 0
 401 -128 403 -130 411 -130 c 0
 451 -130 469 -98 497 0 c 2
 560 219 l 2
 561 224 562 227 562 229 c 0
 562 233 560 233 554 233 c 2
 442 233 l 2
 438 233 428 224 428 219 c 0
 404 135 382 73 353 12 c 0
 298 -101 251 -152 175 -152 c 0x9149e0
87 -10 m 0xc0e5a0
 34 -10 0 21 0 54 c 0
 0 81 17 101 41 101 c 0
 60 101 77 88 77 68 c 0
 77 55 72 45 63 39 c 0
 52 32 46 34 46 29 c 0
 46 22 63 14 88 14 c 0
 120 14 139 37 139 59 c 0xc165a0
 139 79 130 92 101 112 c 0
 66 136 47 155 47 190 c 0
 47 243 88 273 147 273 c 0
 198 273 229 250 229 213 c 0
 229 194 216 175 192 175 c 0
 172 175 157 187 157 207 c 0
 157 218 161 226 167 231 c 0
 174 236 179 236 179 240 c 0
 179 247 165 251 148 251 c 0
 117 251 105 234 105 218 c 0xc0d3a0
 105 199 117 188 153 161 c 0
 192 132 202 111 202 83 c 0
 202 25 152 -10 87 -10 c 0xc0e5a0
690 11 m 0x9155a0
 690 19 694 23 702 31 c 2x9155a0
 856 187 l 2
 857 188 879 210 875 210 c 0
 869 210 855 203 837 203 c 0
 808 203 791 206 787 206 c 0
 781 206 779 200 776 194 c 2
 766 173 l 2
 762 164 758 158 751 158 c 0
 745 158 740 161 740 168 c 0
 740 172 741 177 743 183 c 2
 767 253 l 2
 770 262 775 266 785 266 c 0
 797 266 826 257 886 257 c 0
 900 257 916 259 927 262 c 0
 938 265 943 268 951 268 c 0
 958 268 964 264 964 257 c 0
 964 249 959 243 951 235 c 2
 791 77 l 2
 786 72 779 60 779 60 c 1
 782 60 788 66 801 66 c 0x8a55a0
 840 66 849 31 879 31 c 0xa155a0
 888 31 895 35 899 42 c 0
 901 46 903 50 903 52 c 0
 903 54 902 55 900 55 c 0
 897 55 894 50 884 50 c 0
 870 50 857 61 857 80 c 0
 857 101 872 115 890 115 c 0x9555a0
 908 115 926 102 926 71 c 0
 926 30 900 -10 844 -10 c 0xa155a0
 795 -10 775 21 747 21 c 0x8955a0
 739 21 731 17 723 11 c 0
 718 7 712 -1 703 -1 c 0
 695 -1 690 4 690 11 c 0x9155a0
EndSplineSet
Ligature2: "'liga' Standard Ligatures in Latin lookup 0-1" s f f z
EndChar

StartChar: rf
Encoding: 41 -1 41
Width: 625
Flags: W
HStem: -152 22<184.5 211 184.5 233> 0 21G<10 14 14 63 277 277> 233 31<297 335 303 334 468 527> 235 38<76.5 78> 244 30<212 214> 421 23<527 556>
VStem: 120 97<-79 -69.5> 199 78<203.5 212> 531 94<358.5 374>
LayerCount: 2
Fore
SplineSet
120 -85 m 0xe680
 120 -54 142 -30 172 -30 c 0
 199 -30 217 -45 217 -71 c 0
 217 -87 209 -100 197 -108 c 0
 182 -118 173 -113 173 -121 c 0
 173 -126 178 -130 191 -130 c 0
 231 -130 249 -98 277 0 c 2
 340 219 l 2
 341 224 342 227 342 229 c 0
 342 233 340 233 334 233 c 2
 302 233 l 2
 292 233 287 238 287 248 c 0
 287 259 292 264 303 264 c 2
 335 264 l 2
 349 264 350 264 355 279 c 0
 388 375 442 444 539 444 c 0
 602 444 625 414 625 377 c 0
 625 340 602 323 576 323 c 0
 551 323 531 337 531 365 c 0
 531 383 539 397 552 403 c 0
 563 408 568 407 568 413 c 0
 568 419 560 421 552 421 c 0
 502 421 480 368 460 281 c 0
 459 275 458 272 458 269 c 0
 458 264 461 264 468 264 c 2
 528 264 l 2
 538 264 543 259 543 249 c 0
 543 238 538 233 527 233 c 2
 462 233 l 2
 458 233 448 224 448 219 c 0
 424 135 402 73 373 12 c 0
 318 -101 271 -152 195 -152 c 0
 153 -152 120 -129 120 -85 c 0xe680
-9 144 m 0xd580
 -15 144 -20 148 -20 155 c 0
 -20 160 -18 165 -13 174 c 0
 19 234 52 273 101 273 c 0
 121 273 135 263 141 250 c 0
 148 234 144 229 149 229 c 0xd580
 153 229 154 233 163 243 c 0
 178 260 199 274 225 274 c 0
 262 274 277 250 277 221 c 0
 277 186 259 166 235 166 c 0
 214 166 199 178 199 198 c 0
 199 226 221 229 221 238 c 0
 221 242 217 244 211 244 c 0
 189 244 157 207 144 174 c 2xcd80
 79 12 l 2
 75 2 72 0 63 0 c 2
 14 0 l 2
 6 0 3 2 3 6 c 0
 3 9 4 12 6 17 c 2
 79 198 l 2
 82 205 85 215 85 223 c 0
 85 230 82 235 74 235 c 0
 56 235 36 209 6 157 c 0
 2 149 -2 144 -9 144 c 0xd580
EndSplineSet
Ligature2: "'liga' Standard Ligatures in Latin lookup 0-1" r f
EndChar

StartChar: rfz
Encoding: 42 -1 42
Width: 744
Flags: W
HStem: -152 22<184.5 211 184.5 233> -10 41<644 652> -1 21G<479 487.5> 0 21G 21 45<523 600.5> 50 65<661 669> 203 54<602.5 673> 233 31<297 335 303 334 468 511> 235 38<76.5 78> 244 30<212 214> 421 23<527 556>
VStem: 120 97<-79 -69.5> 199 78<203.5 212> 531 94<358.5 374> 637 69<70.5 86.5 50.5 90.5>
LayerCount: 2
Fore
SplineSet
120 -85 m 0xa136
 120 -54 142 -30 172 -30 c 0
 199 -30 217 -45 217 -71 c 0
 217 -87 209 -100 197 -108 c 0
 182 -118 173 -113 173 -121 c 0
 173 -126 178 -130 191 -130 c 0
 231 -130 249 -98 277 0 c 2
 340 219 l 2
 341 224 342 227 342 229 c 0
 342 233 340 233 334 233 c 2
 302 233 l 2
 292 233 287 238 287 248 c 0
 287 259 292 264 303 264 c 2
 335 264 l 2
 349 264 350 264 355 279 c 0
 388 375 442 444 541 444 c 0
 602 444 625 414 625 377 c 0
 625 340 602 323 576 323 c 0
 551 323 531 337 531 365 c 0
 531 383 539 397 552 403 c 0
 563 408 568 407 568 413 c 0
 568 419 560 421 552 421 c 0
 502 421 480 368 460 281 c 0
 459 275 458 272 458 269 c 0
 458 264 461 264 468 264 c 2
 512 264 l 2
 522 264 527 259 527 249 c 0
 527 238 522 233 511 233 c 2
 462 233 l 2
 458 233 448 224 448 219 c 0
 424 135 402 73 373 12 c 0
 318 -101 271 -152 195 -152 c 0
 153 -152 120 -129 120 -85 c 0xa136
483 -1 m 0
 475 -1 470 4 470 11 c 0
 470 19 474 23 482 31 c 2xa12a
 636 187 l 2
 637 188 659 210 655 210 c 0
 649 210 635 203 617 203 c 0
 588 203 571 206 567 206 c 0
 561 206 559 200 556 194 c 2
 546 173 l 2
 542 164 538 158 531 158 c 0
 525 158 520 161 520 168 c 0
 520 172 521 177 523 183 c 2
 547 253 l 2
 550 262 555 266 565 266 c 0
 577 266 606 257 666 257 c 0
 680 257 696 259 707 262 c 0
 718 265 723 268 731 268 c 0
 738 268 744 264 744 257 c 0
 744 249 739 243 731 235 c 2
 571 77 l 2
 566 72 559 60 559 60 c 1
 562 60 568 66 581 66 c 0x8a2a
 620 66 629 31 659 31 c 0xc12a
 668 31 675 35 679 42 c 0
 681 46 683 50 683 52 c 0
 683 54 682 55 680 55 c 0
 677 55 674 50 664 50 c 0
 650 50 637 61 637 80 c 0
 637 101 652 115 670 115 c 0x952a
 688 115 706 102 706 71 c 0
 706 30 680 -10 624 -10 c 0xc12a
 575 -10 555 21 527 21 c 0x892a
 519 21 511 17 503 11 c 0
 498 7 492 -1 483 -1 c 0
-9 144 m 0x90aa
 -15 144 -20 148 -20 155 c 0
 -20 160 -18 165 -13 174 c 0
 19 234 52 273 101 273 c 0
 121 273 135 263 141 250 c 0
 148 234 144 229 149 229 c 0x90aa
 153 229 154 233 163 243 c 0
 178 260 199 274 225 274 c 0
 262 274 277 250 277 221 c 0
 277 186 259 166 235 166 c 0
 214 166 199 178 199 198 c 0
 199 226 221 229 221 238 c 0
 221 242 217 244 211 244 c 0
 189 244 157 207 144 174 c 2x906a
 79 12 l 2
 75 2 72 0 63 0 c 2
 14 0 l 2
 6 0 3 2 3 6 c 0
 3 9 4 12 6 17 c 2
 79 198 l 2
 82 205 85 215 85 223 c 0
 85 230 82 235 74 235 c 0
 56 235 36 209 6 157 c 0
 2 149 -2 144 -9 144 c 0x90aa
EndSplineSet
Ligature2: "'liga' Standard Ligatures in Latin lookup 0-1" r f z
EndChar
